<svg width="418" height="16" viewBox="0 0 418 16" fill="none" xmlns="http://www.w3.org/2000/svg">
<g clip-path="url(#clip0_13_6835)">
<path d="M209.8 6.90017C206 4.70017 201.9 3.30017 197.7 2.60017C193.5 1.90017 189.2 2.10017 185 2.50017C176.5 3.40017 168.2 5.70018 160 8.30018L147.8 12.3002C143.7 13.6002 139.5 15.0002 135.1 15.5002C126.3 16.4002 117 14.0002 110.3 7.60017L111.2 8.00017L83.8999 7.90017C74.7999 7.80017 65.6999 7.90018 56.5999 7.80018L29.1999 7.40017C20.0999 7.20017 9.9999 7.10017 0.899902 6.90017C9.9999 6.60017 20.0999 6.50018 29.1999 6.30018L56.5999 6.00017C65.6999 5.90017 74.7999 5.90018 83.8999 5.80018H111.2C111.5 5.80018 111.7 5.90017 111.9 6.10017H112C114.8 8.90017 118.6 11.1002 122.5 12.3002C126.5 13.5002 130.7 13.9002 134.9 13.4002C139 13.1002 143.1 11.7002 147.2 10.5002C151.267 9.23351 155.367 7.96684 159.5 6.70017C167.8 4.30017 176.2 2.10017 184.9 1.40017C189.2 1.20017 193.6 1.20017 197.8 2.00017C202.1 2.90017 206.2 4.50017 209.8 6.90017Z" fill="white"/>
<path d="M236 6.70067C239.6 4.30067 243.7 2.70067 247.9 2.00067C252.2 1.20067 256.5 1.10067 260.8 1.40067C269.5 2.10067 277.9 4.20067 286.1 6.50067L298.5 10.1007C302.6 11.3007 306.7 12.6007 310.8 12.9007C319.1 13.7007 327.6 11.8007 334.6 6.70067C331.8 10.0007 327.8 12.3007 323.7 13.7007C319.5 15.1007 315 15.5007 310.6 15.0007C306.2 14.5007 302 13.1007 297.9 11.9007L285.7 8.10067C277.5 5.60067 269.2 3.30067 260.7 2.50067C252.4 1.60067 243.4 2.20067 236 6.70067Z" fill="white"/>
<path d="M209.8 6.90017C213.3 4.50017 217.4 2.90017 221.7 2.00017C225.9 1.20017 230.3 1.20017 234.6 1.40017C243.3 2.10017 251.7 4.30017 260 6.70017L272.3 10.5002C276.4 11.7002 280.5 13.1002 284.6 13.5002C288.8 13.9002 293 13.5002 297 12.3002C300.9 11.1002 304.7 8.90017 307.5 6.10017H307.6C307.8 5.90017 308.1 5.80018 308.4 5.80018H336.3L364.2 6.00017L389.6 6.30018C398.9 6.50018 408.2 6.60017 417.5 6.90017C408.2 7.10017 398.9 7.30017 389.6 7.40017L364.2 7.80018L336.3 7.90017L308.4 8.00017L309.2 7.60017C302.6 14.0002 293.2 16.4002 284.4 15.5002C280 15.0002 275.8 13.6002 271.7 12.3002L259.5 8.30018C251.3 5.70018 243 3.40017 234.5 2.50017C230.3 2.10017 226 1.90017 221.8 2.60017C217.6 3.30017 213.5 4.70017 209.8 6.90017Z" fill="white"/>
<path d="M88.5996 6.70037C91.8996 9.40037 95.7997 11.3004 99.8997 12.3004C104 13.4004 108.3 13.6004 112.4 13.1004C116.6 12.6004 120.6 11.3004 124.7 10.0004L137 6.20037C145.2 3.90037 153.7 1.70037 162.3 1.10037C166.7 0.900369 171 0.900368 175.3 1.70037C179.6 2.70037 183.7 4.20037 187.2 6.70037C183.4 4.70037 179.3 3.40037 175.1 2.80037C170.9 2.20037 166.7 2.40037 162.5 2.80037C158.3 3.33371 154.1 4.06704 149.9 5.00037C145.766 6.00037 141.666 7.13371 137.6 8.40037L125.3 12.0004C121.2 13.1004 117 14.5004 112.6 14.8004C108.2 15.1004 103.8 14.7004 99.5996 13.4004C97.4996 12.7004 95.5996 11.8004 93.6996 10.7004C91.7996 9.60037 90.0996 8.30037 88.5996 6.70037Z" fill="white"/>
<path d="M14.8999 4.50055C11.9999 6.70055 5.8999 6.90056 5.8999 6.90056C5.8999 6.90056 11.9999 7.10055 14.8999 9.20055C17.7999 11.3006 19.4999 8.70056 18.1999 6.90056C19.4999 5.00056 17.7999 2.40055 14.8999 4.50055Z" fill="white"/>
<path d="M6.79987 6.90039C6.79987 7.70039 6.09987 8.30039 5.29987 8.30039C4.49987 8.30039 3.8999 7.70039 3.8999 6.90039C3.8999 6.10039 4.49987 5.40039 5.29987 5.40039C6.09987 5.40039 6.79987 6.10039 6.79987 6.90039Z" fill="white"/>
<path d="M403.5 9.20055C406.4 7.10055 412.5 6.90056 412.5 6.90056C412.5 6.90056 406.4 6.70055 403.5 4.50055C400.7 2.40055 398.9 5.00056 400.2 6.90056C398.9 8.70056 400.7 11.3006 403.5 9.20055Z" fill="white"/>
<path d="M411.7 6.90039C411.7 6.10039 412.3 5.40039 413.1 5.40039C413.9 5.40039 414.5 6.10039 414.5 6.90039C414.5 7.70039 413.9 8.30039 413.1 8.30039C412.3 8.30039 411.7 7.70039 411.7 6.90039Z" fill="white"/>
</g>
<defs>
<clipPath id="clip0_13_6835">
<rect width="418" height="16" fill="white"/>
</clipPath>
</defs>
</svg>
