<svg width="109" height="86" viewBox="0 0 109 86" fill="none" xmlns="http://www.w3.org/2000/svg">
<path d="M106.49 58.9C103.19 64.3 93.9896 59.4 92.0896 56.6C92.0896 56.6 97.6896 69.7 91.4896 74.8C85.2896 79.8 78.3897 68 78.3897 68C78.3897 68 80.8897 79.5 74.2897 82.4C67.0897 85.5 64.1896 75.7 63.1896 69.8C63.1896 69.8 60.8896 85.5 53.1896 85.5C45.5896 85 44.0896 69.3 44.0896 69.3C42.7896 75.1 39.3897 84.7 32.3897 81.2C25.9897 77.9 28.9896 66.6 28.9896 66.6C28.9896 66.6 21.4896 78 15.5896 72.6C9.68964 67.2 15.9896 54.4 15.9896 54.4C13.8896 57.2 4.48965 61.6 1.48965 56C-3.51035 46.8 4.38964 35 20.4896 25.2C35.6896 15.8 55.3896 0.1 55.5896 0C55.7896 0.1 74.5897 16.9 89.2897 27.1C104.69 37.8 111.99 50.1 106.49 58.9Z" fill="#BE2A88"/>
<path d="M55.5896 0L42.6897 9.8C40.8897 11.2 39.3896 12.9 38.5896 15C38.323 15.4667 38.1563 15.9333 38.0896 16.4C37.3896 20 38.0897 22.8 40.1897 24.1C42.2897 25.4 55.5896 0 55.5896 0Z" fill="#E7BA00"/>
<path d="M55.5897 0C55.5897 0 39.0897 20.2 39.6897 27.1C40.1897 34 47.0897 34.2 48.7897 33C50.4897 31.7 55.5897 0 55.5897 0Z" fill="#3179C0"/>
<path d="M55.5896 0L67.9896 10.5C69.6896 12 70.9896 13.8 71.7896 15.9C71.9896 16.4333 72.1229 16.9333 72.1896 17.4C72.6896 21 71.7896 23.7 69.6896 24.9C67.4896 26.1 55.5896 0 55.5896 0Z" fill="#E7BA00"/>
<path d="M55.5896 0C55.5896 0 70.8896 21.1 69.9896 28C69.0896 34.8 62.1896 34.7 60.5896 33.3C58.9896 32 55.5896 0 55.5896 0Z" fill="#3179C0"/>
<path d="M53.4897 57.4004C41.4897 57.1004 23.7897 47.5004 16.6897 27.6004C17.9897 26.7004 19.4897 25.8004 20.8897 24.9004C22.4897 30.2004 28.4897 45.8004 46.8897 51.6004C51.5897 53.1004 56.5897 53.2004 61.3897 52.0004C80.0897 47.3004 86.9897 32.0004 88.8897 26.8004C90.1897 27.8004 91.6897 28.7004 92.8897 29.8004C84.0897 49.5004 65.4897 57.8004 53.4897 57.4004Z" fill="#E7BA00"/>
<path d="M59.0897 37.6C56.7897 40.8 52.1897 40.6 50.0897 37.4C49.0897 35.9 48.4897 33.9 48.8897 31.2C50.1897 24 55.3897 0.8 55.5897 0C55.6897 0.8 59.5897 24.3 60.4897 31.5C60.7897 34.2 60.0897 36.2 59.0897 37.6Z" fill="#E7BA00"/>
<path d="M16.6896 43.9998C16.6896 41.6998 14.9896 39.8998 12.7896 39.7998C10.5896 39.7998 8.6896 41.4998 8.5896 43.6998C8.5896 45.8998 10.2896 47.7998 12.4896 47.7998C14.7896 47.8998 16.5896 46.1998 16.6896 43.9998Z" fill="white"/>
<path d="M27.6896 57.9997C27.7896 55.7997 25.9897 53.8997 23.7896 53.8997C21.5896 53.7997 19.7896 55.4997 19.6896 57.7997C19.5896 59.9997 21.3896 61.7997 23.5896 61.8997C25.7896 61.8997 27.6896 60.1997 27.6896 57.9997Z" fill="white"/>
<path d="M41.5897 64.9997C41.6897 62.7997 39.8897 60.8997 37.6897 60.8997C35.4897 60.7997 33.5897 62.4997 33.5897 64.7997C33.4897 66.9997 35.2897 68.7997 37.4897 68.8997C39.6897 68.8997 41.4897 67.1997 41.5897 64.9997Z" fill="white"/>
<path d="M92.8897 46.1003C92.8897 43.9003 94.7897 42.1003 96.9897 42.2003C99.1897 42.3003 100.89 44.1003 100.89 46.3003C100.79 48.5003 98.9897 50.3003 96.7897 50.2003C94.4897 50.1003 92.7897 48.3003 92.8897 46.1003Z" fill="white"/>
<path d="M80.9896 59.4997C81.0896 57.2997 82.8896 55.4997 85.1896 55.5997C87.3896 55.5997 89.0896 57.4997 89.0896 59.6997C88.9896 61.8997 87.0896 63.6997 84.8896 63.5997C82.6896 63.4997 80.9896 61.6997 80.9896 59.4997Z" fill="white"/>
<path d="M66.7896 65.6999C66.7896 63.4999 68.6896 61.6999 70.8896 61.7999C73.0896 61.8999 74.8896 63.6999 74.7896 65.8999C74.6896 68.0999 72.8896 69.8999 70.6896 69.7999C68.4896 69.6999 66.6896 67.8999 66.7896 65.6999Z" fill="white"/>
<path d="M57.6896 68.6001C57.7896 66.4001 55.9897 64.6001 53.7896 64.5001C51.5896 64.4001 49.7896 66.2001 49.6896 68.4001C49.5896 70.6001 51.3896 72.4001 53.5896 72.5001C55.7896 72.6001 57.5896 70.8001 57.6896 68.6001Z" fill="white"/>
</svg>
