<svg width="119" height="247" viewBox="0 0 119 247" fill="none" xmlns="http://www.w3.org/2000/svg">
<path d="M0.73234 131.222C-0.29466 135.984 4.03333 140.633 6.58433 141.241L6.65238 141.254C9.42738 141.761 24.8404 137.035 28.2594 133.024C28.8784 132.287 29.1994 131.513 29.2944 130.737C29.7324 127.207 25.7104 123.623 25.7104 123.623C25.7104 123.623 22.4313 120.842 19.0893 120.329C15.7433 119.824 1.75934 126.459 0.73234 131.222Z" fill="#004900"/>
<path d="M0.394421 118.455C0.839421 120.385 1.69541 122.304 2.9784 123.507C5.6824 126.052 17.4164 129.147 20.2084 128.443C21.4104 128.14 22.9784 127.404 24.4134 126.104C26.3134 124.397 28.0014 121.683 28.3094 117.633C28.8314 110.54 12.1594 106.753 6.84639 107.195C1.54939 107.623 0.319408 112.966 0.319408 112.966C-0.121592 114.161 -0.114579 116.314 0.394421 118.455Z" fill="#004900"/>
<path d="M1.74237 100.298C0.519373 105.013 4.65039 109.838 7.17639 110.551L7.24237 110.567C9.99437 111.188 25.5904 107.106 29.1724 103.239C29.8204 102.528 30.1744 101.768 30.3014 100.998C30.8854 97.4879 27.0164 93.7399 27.0164 93.7399C27.0164 93.7399 23.8544 90.8259 20.5354 90.1749C17.2144 89.5319 2.96637 95.5819 1.74237 100.298Z" fill="#004900"/>
<path d="M2.88638 84.8459C3.52338 86.7219 4.56641 88.5449 5.96341 89.6139C8.90941 91.8769 20.8924 93.7819 23.6014 92.8029C24.7674 92.3799 26.2534 91.4909 27.5514 90.0539C29.2714 88.1649 30.6794 85.2959 30.5814 81.2369C30.3904 74.1279 13.4234 72.0269 8.18143 72.9989C2.95443 73.9549 2.2634 79.3949 2.2634 79.3949C1.9454 80.6249 2.16738 82.7669 2.88638 84.8459Z" fill="#004900"/>
<path d="M1.14336 65.3599C-0.387641 69.9839 3.41635 75.0709 5.88835 75.9489L5.95537 75.9689C8.65837 76.7709 24.4894 73.7259 28.3194 70.1039C29.0134 69.4369 29.4144 68.7019 29.5934 67.9409C30.4064 64.4779 26.7914 60.4829 26.7914 60.4829C26.7914 60.4829 23.8304 57.3669 20.5624 56.4979C17.2914 55.6389 2.67636 60.7349 1.14336 65.3599Z" fill="#004900"/>
<path d="M0.931372 46.6849C0.892372 48.6639 1.25133 50.7349 2.20133 52.2139C4.20133 55.3439 14.8213 61.2139 17.7013 61.2139C18.9413 61.2139 20.6424 60.8839 22.3504 59.9739C24.6114 58.7849 26.9113 56.5649 28.2013 52.7139C30.4413 45.9639 15.2014 38.2139 9.94138 37.3439C4.70138 36.4639 2.20133 41.3439 2.20133 41.3439C1.48233 42.3949 0.962372 44.4839 0.931372 46.6849Z" fill="#004900"/>
<path d="M0.656343 36.8799C0.535343 41.7499 5.65636 45.5099 8.27536 45.6299H8.34537C11.1654 45.6099 25.4253 38.0899 28.0343 33.5099C28.5053 32.6699 28.6753 31.8509 28.6253 31.0709C28.3953 27.5209 23.7743 24.7509 23.7743 24.7509C23.7743 24.7509 20.0344 22.6309 16.6554 22.7509C13.2754 22.8799 0.775343 32.0099 0.656343 36.8799Z" fill="#004900"/>
<path d="M13.8224 17.5469C13.8224 38.8479 13.8224 60.1499 13.8224 81.4499C13.8224 107.316 13.8224 133.182 13.8224 159.047C13.8224 159.797 13.8224 160.547 13.8224 161.297C13.8224 162.587 15.8224 162.587 15.8224 161.297C15.8224 139.996 15.8224 118.694 15.8224 97.3939C15.8224 71.5279 15.8224 45.6619 15.8224 19.7969C15.8224 19.0469 15.8224 18.2979 15.8224 17.5479C15.8224 16.2569 13.8224 16.2569 13.8224 17.5469Z" fill="#DE8C00"/>
<path d="M0.73234 131.222C-0.29466 135.984 4.03333 140.633 6.58433 141.241L6.65238 141.254C4.75038 134.501 20.0454 128.795 25.6484 128.659C28.2444 128.602 29.1254 129.596 29.2944 130.737C29.7324 127.207 25.7104 123.622 25.7104 123.622C25.7104 123.622 22.4313 120.842 19.0893 120.329C15.7433 119.824 1.75934 126.459 0.73234 131.222Z" fill="#42A732"/>
<path d="M24.3164 123.616C24.3164 123.616 23.9324 123.698 23.2714 123.864C22.6104 124.026 21.6744 124.293 20.5704 124.652C19.4634 125.002 18.1924 125.465 16.8534 126.007C16.1864 126.288 15.4974 126.574 14.8154 126.903C14.1214 127.208 13.4354 127.555 12.7584 127.923C12.0644 128.255 11.4094 128.66 10.7524 129.036C10.0874 129.401 9.47938 129.832 8.86438 130.213C8.24638 130.587 7.70238 131.027 7.15338 131.4C6.60438 131.774 6.11639 132.168 5.66339 132.531C5.21839 132.901 4.77441 133.206 4.42041 133.519C4.06641 133.833 3.75537 134.106 3.50037 134.332C2.98637 134.781 2.6814 135.03 2.6814 135.03C2.6814 135.03 2.92039 134.722 3.36139 134.196C3.58439 133.934 3.85339 133.616 4.16339 133.251C4.47239 132.884 4.86738 132.516 5.28638 132.1C5.70438 131.683 6.15936 131.23 6.69336 130.814C7.22136 130.393 7.7434 129.895 8.3634 129.49C8.9764 129.079 9.57038 128.587 10.2524 128.211C10.9214 127.816 11.5864 127.389 12.2954 127.039C12.9954 126.673 13.7044 126.327 14.4214 126.025C15.1234 125.692 15.8514 125.45 16.5414 125.188C17.9374 124.701 19.2684 124.331 20.4254 124.102C21.5774 123.848 22.5604 123.754 23.2404 123.676C23.9234 123.61 24.3164 123.616 24.3164 123.616Z" fill="#004900"/>
<path d="M0.394421 118.455C10.4414 115.725 21.4694 123.752 24.4134 126.104C26.3134 124.397 28.0014 121.683 28.3094 117.633C28.8314 110.54 12.1594 106.753 6.84639 107.195C1.54939 107.623 0.319408 112.966 0.319408 112.966C-0.121592 114.161 -0.114579 116.314 0.394421 118.455Z" fill="#42A732"/>
<path d="M26.7654 120.729C26.7654 120.729 26.4224 120.461 25.8014 120.027C25.1944 119.576 24.2804 118.996 23.1874 118.313C22.6384 117.973 22.0414 117.614 21.3884 117.268C20.7494 116.897 20.0384 116.58 19.3304 116.205C18.6104 115.853 17.8474 115.53 17.0784 115.192C16.2904 114.904 15.5154 114.538 14.6914 114.312C13.8834 114.042 13.0754 113.771 12.2544 113.597C11.8474 113.495 11.4434 113.393 11.0454 113.293C10.6404 113.224 10.2404 113.156 9.84735 113.088C9.45435 113.021 9.06638 112.955 8.68738 112.89C8.30438 112.853 7.92937 112.818 7.56537 112.783C6.83437 112.702 6.14039 112.641 5.49939 112.671C4.85439 112.669 4.26436 112.667 3.74036 112.665C3.21736 112.711 2.76038 112.751 2.38538 112.784C1.62638 112.838 1.19336 112.87 1.19336 112.87C1.19336 112.87 1.61537 112.769 2.35437 112.592C2.72837 112.509 3.18139 112.409 3.70239 112.295C4.22739 112.215 4.82736 112.163 5.48236 112.108C6.13836 112.026 6.84941 112.032 7.60541 112.055C7.98341 112.061 8.37241 112.068 8.76941 112.075C9.16541 112.1 9.5664 112.17 9.9754 112.218C10.3854 112.271 10.8014 112.325 11.2234 112.38C11.6374 112.472 12.0574 112.565 12.4804 112.659C13.3334 112.829 14.1704 113.095 15.0094 113.365C15.8554 113.612 16.6494 113.998 17.4564 114.306C18.2464 114.658 19.0064 115.042 19.7314 115.426C21.1734 116.218 22.4484 117.072 23.5004 117.851C24.5604 118.621 25.3634 119.364 25.9234 119.879C26.4824 120.397 26.7654 120.729 26.7654 120.729Z" fill="#004900"/>
<path d="M1.74237 100.298C0.519373 105.013 4.65039 109.838 7.17639 110.551L7.24237 110.567C5.62337 103.74 21.1404 98.6729 26.7444 98.7699C29.3404 98.8219 30.1804 99.8489 30.3014 100.997C30.8854 97.4869 27.0164 93.7389 27.0164 93.7389C27.0164 93.7389 23.8544 90.8249 20.5354 90.1739C17.2144 89.5319 2.96637 95.5819 1.74237 100.298Z" fill="#42A732"/>
<path d="M25.6224 93.6769C25.6224 93.6769 25.2354 93.7419 24.5684 93.8819C23.9004 94.0159 22.9554 94.2439 21.8364 94.5569C20.7164 94.8609 19.4274 95.2699 18.0654 95.7569C17.3884 96.0099 16.6884 96.2669 15.9934 96.5669C15.2874 96.8429 14.5874 97.1619 13.8954 97.5009C13.1884 97.8039 12.5174 98.1819 11.8444 98.5289C11.1654 98.8659 10.5394 99.2719 9.9104 99.6259C9.2754 99.9749 8.71539 100.392 8.15039 100.742C7.58639 101.093 7.08336 101.466 6.61536 101.81C6.15436 102.161 5.6994 102.448 5.3324 102.746C4.9644 103.044 4.64439 103.305 4.37939 103.519C3.84739 103.946 3.53137 104.182 3.53137 104.182C3.53137 104.182 3.78336 103.884 4.24536 103.378C4.47736 103.125 4.76139 102.818 5.08539 102.467C5.40939 102.113 5.81837 101.761 6.25537 101.363C6.69037 100.963 7.16336 100.53 7.71436 100.136C8.26036 99.7369 8.80235 99.2619 9.43835 98.8829C10.0684 98.4979 10.6824 98.0309 11.3784 97.6839C12.0634 97.3169 12.7454 96.9169 13.4684 96.5969C14.1834 96.2599 14.9064 95.9439 15.6344 95.6719C16.3504 95.3679 17.0874 95.1569 17.7874 94.9239C19.2024 94.4949 20.5474 94.1809 21.7134 93.9999C22.8754 93.7929 23.8614 93.7409 24.5434 93.6909C25.2314 93.6539 25.6224 93.6769 25.6224 93.6769Z" fill="#004900"/>
<path d="M2.88638 84.8459C12.6114 81.1239 24.3864 88.0089 27.5514 90.0539C29.2714 88.1649 30.6794 85.2959 30.5814 81.2369C30.3904 74.1279 13.4234 72.0269 8.18143 72.9989C2.95443 73.9549 2.2634 79.3939 2.2634 79.3939C1.9454 80.6249 2.16738 82.7669 2.88638 84.8459Z" fill="#42A732"/>
<path d="M29.3554 84.4709C29.3554 84.4709 28.9874 84.2389 28.3264 83.8679C27.6774 83.4809 26.7094 82.9949 25.5534 82.4249C24.9734 82.1419 24.3424 81.8439 23.6584 81.5649C22.9864 81.2599 22.2474 81.0159 21.5044 80.7129C20.7524 80.4349 19.9604 80.1899 19.1624 79.9299C18.3494 79.7229 17.5404 79.4359 16.6994 79.2929C15.8674 79.1049 15.0364 78.9169 14.2024 78.8249C13.7874 78.7639 13.3764 78.7039 12.9694 78.6439C12.5604 78.6159 12.1564 78.5879 11.7574 78.5609C11.3594 78.5339 10.9664 78.5069 10.5824 78.4799C10.1974 78.4819 9.82138 78.4829 9.45538 78.4849C8.72038 78.4779 8.02337 78.4859 7.38837 78.5799C6.74637 78.6429 6.15839 78.6999 5.63739 78.7499C5.12139 78.8479 4.67139 78.9339 4.30139 79.0039C3.55239 79.1339 3.12335 79.2079 3.12335 79.2079C3.12335 79.2079 3.5334 79.0649 4.2514 78.8149C4.6144 78.6959 5.0564 78.5509 5.5614 78.3839C6.0774 78.2519 6.66739 78.1399 7.31439 78.0199C7.95939 77.8719 8.66836 77.8079 9.42236 77.7539C9.79936 77.7229 10.1874 77.6899 10.5824 77.6569C10.9784 77.6419 11.3844 77.6719 11.7974 77.6779C12.2104 77.6899 12.6304 77.7019 13.0554 77.7139C13.4774 77.7639 13.9044 77.8149 14.3334 77.8659C15.1984 77.9499 16.0604 78.1309 16.9204 78.3159C17.7874 78.4769 18.6154 78.7819 19.4504 79.0069C20.2704 79.2779 21.0664 79.5839 21.8264 79.8939C23.3414 80.5369 24.6944 81.2599 25.8194 81.9289C26.9514 82.5889 27.8254 83.2479 28.4334 83.7039C29.0404 84.1679 29.3554 84.4709 29.3554 84.4709Z" fill="#004900"/>
<path d="M1.14336 65.3599C-0.387641 69.9839 3.41635 75.0709 5.88835 75.9489L5.95537 75.9689C4.78737 69.0509 20.6054 65.0189 26.1914 65.4849C28.7784 65.7069 29.5464 66.7879 29.5934 67.9409C30.4064 64.4779 26.7914 60.4829 26.7914 60.4829C26.7914 60.4829 23.8304 57.3669 20.5624 56.4979C17.2914 55.6389 2.67636 60.7349 1.14336 65.3599Z" fill="#42A732"/>
<path d="M25.4094 60.3279C25.4094 60.3279 25.0184 60.3679 24.3444 60.4629C23.6694 60.5529 22.7104 60.7179 21.5734 60.9559C20.4344 61.1849 19.1214 61.5089 17.7324 61.9039C17.0394 62.1119 16.3244 62.3219 15.6104 62.5759C14.8864 62.8049 14.1684 63.0759 13.4564 63.3689C12.7294 63.6239 12.0354 63.9569 11.3424 64.2599C10.6424 64.5509 9.99036 64.9149 9.33936 65.2269C8.68436 65.5329 8.09635 65.9119 7.51135 66.2239C6.92435 66.5369 6.39739 66.8759 5.90839 67.1889C5.42539 67.5089 4.95241 67.7649 4.56641 68.0379C4.17941 68.3119 3.84239 68.5499 3.56439 68.7469C3.00539 69.1379 2.67438 69.3529 2.67438 69.3529C2.67438 69.3529 2.94537 69.0729 3.44037 68.5969C3.68937 68.3609 3.99138 68.0729 4.33838 67.7429C4.68438 67.4109 5.11639 67.0869 5.57739 66.7189C6.03839 66.3489 6.53938 65.9479 7.11438 65.5909C7.68538 65.2289 8.25736 64.7899 8.91736 64.4539C9.57136 64.1119 10.2144 63.6859 10.9324 63.3849C11.6404 63.0639 12.3484 62.7099 13.0904 62.4379C13.8244 62.1489 14.5684 61.8809 15.3124 61.6579C16.0464 61.4019 16.7954 61.2399 17.5104 61.0539C18.9504 60.7189 20.3134 60.4939 21.4894 60.3909C22.6624 60.2609 23.6494 60.2739 24.3344 60.2689C25.0194 60.2799 25.4094 60.3279 25.4094 60.3279Z" fill="#004900"/>
<path d="M0.931372 46.6849C11.3414 46.4949 20.0724 56.9739 22.3514 59.9739C24.6124 58.7849 26.9124 56.5649 28.2024 52.7139C30.4424 45.9639 15.2024 38.2139 9.94238 37.3439C4.70238 36.4639 2.20239 41.3439 2.20239 41.3439C1.48239 42.3949 0.962372 44.4839 0.931372 46.6849Z" fill="#42A732"/>
<path d="M25.9474 55.3389C25.9474 55.3389 25.6794 54.9949 25.1844 54.4219C24.7054 53.8369 23.9604 53.0499 23.0684 52.1209C22.6194 51.6569 22.1274 51.1629 21.5794 50.6679C21.0524 50.1519 20.4394 49.6709 19.8444 49.1339C19.2324 48.6169 18.5714 48.1159 17.9094 47.5999C17.2144 47.1279 16.5524 46.5829 15.8094 46.1619C15.0914 45.7029 14.3734 45.2419 13.6204 44.8729C13.2514 44.6749 12.8854 44.4769 12.5224 44.2829C12.1474 44.1169 11.7764 43.9529 11.4114 43.7919C11.0454 43.6299 10.6854 43.4719 10.3344 43.3159C9.97235 43.1869 9.61736 43.0599 9.27136 42.9369C8.58336 42.6799 7.92541 42.4509 7.29541 42.3229C6.67041 42.1629 6.09837 42.0169 5.59137 41.8869C5.07237 41.8029 4.62035 41.7309 4.24835 41.6709C3.49935 41.5379 3.07141 41.4629 3.07141 41.4629C3.07141 41.4629 3.50638 41.4679 4.26538 41.4779C4.64738 41.4899 5.11241 41.5029 5.64441 41.5189C6.17341 41.5709 6.76738 41.6659 7.41638 41.7739C8.07238 41.8539 8.76137 42.0349 9.48737 42.2409C9.85237 42.3399 10.2274 42.4409 10.6114 42.5449C10.9894 42.6669 11.3604 42.8319 11.7464 42.9789C12.1314 43.1299 12.5214 43.2849 12.9164 43.4409C13.2964 43.6309 13.6804 43.8239 14.0674 44.0189C14.8514 44.3919 15.5994 44.8559 16.3464 45.3219C17.1074 45.7689 17.7824 46.3369 18.4904 46.8329C19.1704 47.3669 19.8124 47.9259 20.4234 48.4759C21.6284 49.5959 22.6544 50.7369 23.4854 51.7479C24.3254 52.7539 24.9234 53.6709 25.3394 54.3069C25.7534 54.9479 25.9474 55.3389 25.9474 55.3389Z" fill="#004900"/>
<path d="M0.656343 36.8799C0.535343 41.7499 5.65636 45.5099 8.27536 45.6299H8.34537C5.21537 39.3509 19.1754 30.8899 24.6554 29.7099C27.1944 29.1699 28.2453 29.9819 28.6253 31.0709C28.3953 27.5209 23.7743 24.7509 23.7743 24.7509C23.7743 24.7509 20.0344 22.6309 16.6554 22.7509C13.2754 22.8809 0.775343 32.0099 0.656343 36.8799Z" fill="#42A732"/>
<path d="M22.4064 25.0049C22.4064 25.0049 22.0454 25.1569 21.4274 25.4429C20.8074 25.7259 19.9384 26.1629 18.9194 26.7209C17.8974 27.2719 16.7354 27.9639 15.5214 28.7459C14.9184 29.1459 14.2954 29.5559 13.6864 30.0059C13.0614 30.4349 12.4524 30.9039 11.8564 31.3909C11.2364 31.8469 10.6684 32.3679 10.0924 32.8589C9.50841 33.3409 8.99037 33.8789 8.45837 34.3669C7.92037 34.8509 7.46835 35.3839 6.99835 35.8529C6.52835 36.3229 6.12336 36.8009 5.74536 37.2419C5.37636 37.6889 4.99837 38.0709 4.70837 38.4439C4.41837 38.8179 4.16536 39.1449 3.95636 39.4139C3.53536 39.9509 3.28137 40.2529 3.28137 40.2529C3.28137 40.2529 3.45937 39.9059 3.79437 39.3069C3.96337 39.0079 4.16936 38.6449 4.40436 38.2289C4.63936 37.8099 4.9594 37.3749 5.2934 36.8889C5.6264 36.4009 5.9884 35.8719 6.4364 35.3629C6.8774 34.8499 7.29638 34.2639 7.83038 33.7509C8.35638 33.2319 8.84841 32.6379 9.44641 32.1419C10.0304 31.6289 10.6044 31.0849 11.2354 30.6089C11.8544 30.1179 12.4874 29.6469 13.1344 29.2149C13.7624 28.7569 14.4314 28.3839 15.0614 27.9969C16.3414 27.2579 17.5804 26.6459 18.6744 26.2039C19.7584 25.7389 20.7064 25.4639 21.3604 25.2599C22.0194 25.0719 22.4064 25.0049 22.4064 25.0049Z" fill="#004900"/>
<path d="M19.9134 141.082C19.9134 141.082 23.2574 137.292 25.4854 140.413C27.7154 143.535 25.4854 145.021 25.4854 145.021C25.4854 145.021 29.6494 145.095 30.0944 148.886C30.5394 152.676 28.3094 153.568 28.3094 153.568C28.3094 153.568 30.7644 155.798 29.2024 159.216C27.6424 162.635 25.5594 160.703 25.5594 160.703C25.5594 160.703 26.3774 164.642 24.3714 165.683C22.3634 166.723 18.5744 163.676 18.5744 163.676C18.5744 163.676 18.2754 167.318 14.6354 167.095C10.9924 166.871 10.1004 163.156 10.1004 163.156C10.1004 163.156 8.54038 165.311 6.08838 163.973C3.63538 162.635 5.4184 159.366 5.4184 159.366C5.4184 159.366 1.0334 159.589 0.215399 155.204C-0.600601 150.818 3.56141 149.704 3.56141 149.704C3.56141 149.704 -0.452599 147.251 1.4054 144.278C3.2624 141.305 6.16138 143.311 6.16138 143.311C6.16138 143.311 4.67741 139.15 7.35041 138.183C10.0264 137.217 12.5534 139.892 12.5534 139.892C12.5534 139.892 13.3714 135.285 16.9404 136.176C20.5074 137.069 19.9134 141.082 19.9134 141.082Z" fill="#F3AF00"/>
<path d="M13.0754 145.244C13.0754 145.244 14.5614 140.785 17.6834 141.974C20.8044 143.162 19.4664 147.176 19.4664 147.176C19.4664 147.176 23.0344 145.69 24.2244 148.886C25.4134 152.081 22.9604 153.122 22.9604 153.122C22.9604 153.122 25.9334 155.352 24.7434 157.878C23.5544 160.405 19.6884 159.588 19.6884 159.588C19.6884 159.588 19.4654 161.743 17.3114 162.264C15.1554 162.785 12.8504 159.662 12.8504 159.662C12.8504 159.662 11.1414 161.445 8.91137 159.662C6.68337 157.878 8.16937 155.945 8.16937 155.945C8.16937 155.945 5.04837 156.02 5.41937 152.155C5.79037 148.291 9.13635 148.365 9.13635 148.365C9.13635 148.365 7.4254 146.136 8.5404 144.722C9.6564 143.312 13.0754 145.244 13.0754 145.244Z" fill="#DE8C00"/>
<path d="M19.1023 5.57689C19.1023 5.57689 20.5884 2.38189 23.7104 4.46289C26.8314 6.5439 23.3384 9.5909 23.3384 9.5909C23.3384 9.5909 27.3523 8.2529 28.4663 11.4489C29.5813 14.6439 26.2373 15.1649 26.2373 15.1649C26.2373 15.1649 30.4734 17.8409 29.0614 21.5569C27.6504 25.2739 24.6023 23.6379 24.6023 23.6379C24.6023 23.6379 26.7573 27.2799 24.3053 29.5099C21.8523 31.7389 18.2104 28.5429 18.2104 28.5429C18.2104 28.5429 17.2444 31.2189 14.1964 31.5159C11.1494 31.8139 10.1823 27.7259 10.1823 27.7259C10.1823 27.7259 8.62137 29.2869 6.09537 28.4689C3.56837 27.6519 4.90635 22.6719 4.90635 22.6719C4.90635 22.6719 1.63536 23.6379 0.74436 20.9619C-0.14864 18.2869 3.04838 16.5029 3.04838 16.5029C3.04838 16.5029 0.298353 14.5699 1.56235 10.7799C2.82535 6.98889 6.76536 9.1449 6.76536 9.1449C6.76536 9.1449 3.19737 4.61189 6.61637 2.90289C10.0354 1.19289 12.5624 5.42889 12.5624 5.42889C12.5624 5.42889 12.3383 -0.145104 15.9063 0.00289594C19.4743 0.151896 19.1023 5.57689 19.1023 5.57689Z" fill="#FF5012"/>
<path d="M17.9134 11.8199C17.9134 11.8199 20.3654 8.54889 22.3714 11.2249C24.3794 13.9009 22.4464 16.3539 22.4464 16.3539C22.4464 16.3539 25.3444 17.3939 24.5274 20.4419C23.7104 23.4889 20.6623 22.0029 20.6623 22.0029C20.6623 22.0029 21.9264 24.1579 19.9204 25.2739C17.9134 26.3879 15.3124 23.7119 15.3124 23.7119C15.3124 23.7119 14.1224 26.2389 11.2984 25.1239C8.47439 24.0099 10.0344 20.9619 10.0344 20.9619C10.0344 20.9619 6.83837 21.7049 6.24437 18.5099C5.64937 15.3139 8.99437 14.4959 8.99437 14.4959C8.99437 14.4959 7.50837 13.6039 8.77037 10.7799C10.0344 7.95589 12.5614 10.7799 12.5614 10.7799C12.5614 10.7799 13.5274 6.4689 15.6824 6.9889C17.8384 7.5099 17.9134 11.8199 17.9134 11.8199Z" fill="#C93114"/>
<path d="M73.126 206.517C73.126 206.517 75.425 201.574 80.254 204.792C85.083 208.012 79.679 212.726 79.679 212.726C79.679 212.726 85.888 210.656 87.613 215.6C89.338 220.544 84.164 221.349 84.164 221.349C84.164 221.349 90.717 225.488 88.533 231.236C86.348 236.984 81.635 234.455 81.635 234.455C81.635 234.455 84.969 240.09 81.174 243.538C77.381 246.987 71.747 242.043 71.747 242.043C71.747 242.043 70.252 246.183 65.539 246.643C60.824 247.103 59.33 240.78 59.33 240.78C59.33 240.78 56.916 243.194 53.007 241.929C49.098 240.664 51.1679 232.961 51.1679 232.961C51.1679 232.961 46.1079 234.455 44.7279 230.316C43.3489 226.177 48.2929 223.418 48.2929 223.418C48.2929 223.418 44.039 220.43 45.994 214.566C47.948 208.702 54.041 212.037 54.041 212.037C54.041 212.037 48.523 205.023 53.812 202.379C59.1 199.735 63.01 206.288 63.01 206.288C63.01 206.288 62.664 197.665 68.184 197.896C73.7 198.124 73.126 206.517 73.126 206.517Z" fill="#F3AF00"/>
<path d="M71.286 216.175C71.286 216.175 75.08 211.116 78.184 215.255C81.288 219.394 78.299 223.188 78.299 223.188C78.299 223.188 82.782 224.798 81.518 229.511C80.253 234.225 75.539 231.925 75.539 231.925C75.539 231.925 77.494 235.259 74.389 236.984C71.285 238.709 67.2619 234.57 67.2619 234.57C67.2619 234.57 65.422 238.479 61.053 236.755C56.684 235.03 59.098 230.317 59.098 230.317C59.098 230.317 54.155 231.467 53.235 226.523C52.315 221.58 57.489 220.315 57.489 220.315C57.489 220.315 55.19 218.935 57.144 214.567C59.098 210.198 63.008 214.567 63.008 214.567C63.008 214.567 64.502 207.898 67.836 208.703C71.171 209.507 71.286 216.175 71.286 216.175Z" fill="#DE8C00"/>
<path d="M69.331 220.888C69.331 220.888 71.286 218.589 73.241 220.544C75.195 222.497 72.436 223.992 72.436 223.992C72.436 223.992 76.229 225.487 74.735 227.671C73.241 229.857 69.446 227.671 69.446 227.671C69.446 227.671 70.136 231.12 66.687 231.236C63.238 231.351 64.157 227.442 64.157 227.442C64.157 227.442 60.709 227.787 60.938 224.453C61.169 221.119 63.352 222.498 63.352 222.498C63.352 222.498 62.204 219.394 65.077 217.785C67.952 216.175 69.331 220.888 69.331 220.888Z" fill="#F3AF00"/>
<path d="M73.615 173.013C73.615 173.013 78.788 167.15 82.237 171.979C85.686 176.807 82.237 179.107 82.237 179.107C82.237 179.107 88.676 179.222 89.366 185.086C90.056 190.949 86.606 192.329 86.606 192.329C86.606 192.329 90.401 195.778 87.986 201.066C85.571 206.355 82.352 203.366 82.352 203.366C82.352 203.366 83.618 209.459 80.512 211.068C77.408 212.677 71.545 207.964 71.545 207.964C71.545 207.964 71.085 213.597 65.451 213.253C59.818 212.907 58.437 207.159 58.437 207.159C58.437 207.159 56.023 210.493 52.228 208.423C48.435 206.355 51.195 201.296 51.195 201.296C51.195 201.296 44.412 201.641 43.146 194.858C41.882 188.075 48.32 186.35 48.32 186.35C48.32 186.35 42.111 182.556 44.986 177.958C47.861 173.358 52.343 176.463 52.343 176.463C52.343 176.463 50.044 170.025 54.183 168.53C58.322 167.035 62.232 171.175 62.232 171.175C62.232 171.175 63.496 164.046 69.015 165.426C74.534 166.805 73.615 173.013 73.615 173.013Z" fill="#FF5012"/>
<path d="M63.0379 179.452C63.0379 179.452 65.337 172.554 70.166 174.393C74.995 176.233 72.925 182.441 72.925 182.441C72.925 182.441 78.444 180.142 80.283 185.086C82.123 190.029 78.329 191.639 78.329 191.639C78.329 191.639 82.928 195.088 81.089 198.997C79.249 202.906 73.271 201.642 73.271 201.642C73.271 201.642 72.925 204.976 69.591 205.781C66.257 206.586 62.693 201.758 62.693 201.758C62.693 201.758 60.048 204.517 56.599 201.758C53.15 198.998 55.451 196.009 55.451 196.009C55.451 196.009 50.621 196.124 51.197 190.146C51.771 184.167 56.945 184.283 56.945 184.283C56.945 184.283 54.3009 180.834 56.0249 178.649C57.7489 176.462 63.0379 179.452 63.0379 179.452Z" fill="#C93114"/>
<path d="M69.591 187.155C69.591 187.155 69.591 182.556 67.407 182.672C65.222 182.786 63.958 186.466 63.958 186.466C63.958 186.466 61.313 185.086 59.358 187.731C57.403 190.375 60.967 191.065 60.967 191.065C60.967 191.065 58.094 196.353 60.967 198.078C63.842 199.803 67.176 195.089 67.176 195.089C67.176 195.089 72.235 200.608 73.614 197.849C74.994 195.089 71.774 191.986 71.774 191.986C71.774 191.986 76.834 190.146 75.568 187.386C74.305 184.625 69.591 187.155 69.591 187.155Z" fill="#FF5012"/>
<path d="M64.688 142.611C64.688 142.611 65.301 134.486 69.899 135.406C74.499 136.326 74.345 144.298 74.345 144.298C74.345 144.298 80.323 138.779 84.156 142.152C87.989 145.524 84.003 150.736 84.003 150.736C84.003 150.736 92.435 152.269 91.668 158.708C90.901 165.147 84.77 165.147 84.77 165.147C84.77 165.147 89.216 169.132 86.15 172.964C83.084 176.796 77.566 172.811 77.566 172.811C77.566 172.811 77.412 178.177 72.66 179.709C67.908 181.242 64.996 175.417 64.996 175.417C64.996 175.417 62.389 178.176 58.404 176.337C54.418 174.497 55.951 170.205 55.951 170.205C55.951 170.205 51.659 170.972 48.9 166.373C46.14 161.773 50.739 159.015 50.739 159.015C50.739 159.015 45.987 156.715 47.367 150.43C48.746 144.145 54.724 147.978 54.724 147.978C54.724 147.978 50.739 140.314 56.411 138.321C62.082 136.326 64.688 142.611 64.688 142.611Z" fill="#F3AF00"/>
<path d="M69.287 151.386C69.287 151.386 71.126 146.903 74.346 147.822C77.566 148.741 76.3 155.41 76.3 155.41C76.3 155.41 82.163 155.87 81.819 160.238C81.473 164.607 75.955 163.227 75.955 163.227C75.955 163.227 78.3699 166.562 75.1499 168.861C71.9299 171.161 68.252 167.021 68.252 167.021C68.252 167.021 67.218 170.816 62.964 170.01C58.71 169.205 60.894 163.802 60.894 163.802C60.894 163.802 56.411 165.297 55.261 160.583C54.111 155.869 59.169 154.604 59.169 154.604C59.169 154.604 56.755 150.58 60.435 147.475C64.113 144.373 69.287 151.386 69.287 151.386Z" fill="#DE8C00"/>
<path d="M67.333 157.135C67.333 157.135 68.712 152.881 70.667 154.375C72.621 155.87 71.931 158.744 71.931 158.744C71.931 158.744 74.46 161.848 72.621 163.343C72.621 163.343 70.667 165.068 68.481 161.963C68.481 161.963 68.481 164.952 65.837 164.492C63.192 164.033 64.803 159.893 64.803 159.893C64.803 159.893 61.468 159.893 62.502 156.444C63.538 152.996 67.333 157.135 67.333 157.135Z" fill="#F3AF00"/>
<path d="M74.518 107.415C74.518 107.415 76.818 102.472 81.646 105.69C86.475 108.91 81.072 113.624 81.072 113.624C81.072 113.624 87.28 111.555 89.005 116.498C90.73 121.441 85.556 122.246 85.556 122.246C85.556 122.246 92.11 126.386 89.925 132.134C87.74 137.883 83.027 135.354 83.027 135.354C83.027 135.354 86.361 140.987 82.567 144.436C78.773 147.885 73.139 142.942 73.139 142.942C73.139 142.942 71.645 147.081 66.931 147.541C62.217 148.001 60.723 141.678 60.723 141.678C60.723 141.678 58.308 144.092 54.399 142.827C50.491 141.562 52.56 133.859 52.56 133.859C52.56 133.859 47.5 135.354 46.121 131.214C44.741 127.075 49.686 124.317 49.686 124.317C49.686 124.317 45.432 121.328 47.386 115.463C49.34 109.6 55.434 112.934 55.434 112.934C55.434 112.934 49.916 105.921 55.204 103.277C60.493 100.632 64.402 107.186 64.402 107.186C64.402 107.186 64.057 98.5631 69.575 98.7931C75.093 99.0231 74.518 107.415 74.518 107.415Z" fill="#FF5012"/>
<path d="M72.679 117.074C72.679 117.074 76.472 112.014 79.577 116.154C82.681 120.293 79.692 124.087 79.692 124.087C79.692 124.087 84.175 125.696 82.912 130.41C81.646 135.124 76.933 132.824 76.933 132.824C76.933 132.824 78.887 136.159 75.783 137.883C72.679 139.608 68.655 135.468 68.655 135.468C68.655 135.468 66.815 139.377 62.447 137.653C58.078 135.928 60.492 131.214 60.492 131.214C60.492 131.214 55.549 132.364 54.629 127.42C53.709 122.477 58.883 121.212 58.883 121.212C58.883 121.212 56.584 119.832 58.537 115.463C60.492 111.095 64.401 115.463 64.401 115.463C64.401 115.463 65.896 108.795 69.23 109.6C72.563 110.405 72.679 117.074 72.679 117.074Z" fill="#C93114"/>
<path d="M70.724 121.787C70.724 121.787 72.679 119.488 74.633 121.442C76.587 123.397 73.827 124.891 73.827 124.891C73.827 124.891 77.622 126.386 76.128 128.57C74.633 130.755 70.839 128.57 70.839 128.57C70.839 128.57 71.528 132.019 68.079 132.134C64.63 132.249 65.55 128.34 65.55 128.34C65.55 128.34 62.101 128.685 62.331 125.351C62.56 122.017 64.745 123.397 64.745 123.397C64.745 123.397 63.596 120.293 66.47 118.683C69.345 117.074 70.724 121.787 70.724 121.787Z" fill="#FF5012"/>
<path d="M74.874 75.9991C74.874 75.9991 77.173 71.0551 82.002 74.2741C86.831 77.4931 81.427 82.2071 81.427 82.2071C81.427 82.2071 87.636 80.1381 89.361 85.0811C91.086 90.0251 85.912 90.8301 85.912 90.8301C85.912 90.8301 92.465 94.9691 90.281 100.717C88.095 106.466 83.383 103.937 83.383 103.937C83.383 103.937 86.717 109.571 82.922 113.019C79.129 116.468 73.495 111.525 73.495 111.525C73.495 111.525 72 115.664 67.287 116.124C62.572 116.584 61.078 110.261 61.078 110.261C61.078 110.261 58.664 112.675 54.755 111.41C50.846 110.145 52.916 102.442 52.916 102.442C52.916 102.442 47.856 103.937 46.477 99.7981C45.098 95.6581 50.041 92.9001 50.041 92.9001C50.041 92.9001 45.787 89.9111 47.742 84.0471C49.696 78.1831 55.789 81.5181 55.789 81.5181C55.789 81.5181 50.271 74.5041 55.56 71.8601C60.848 69.2161 64.758 75.7691 64.758 75.7691C64.758 75.7691 64.412 67.1461 69.932 67.3761C75.448 67.6061 74.874 75.9991 74.874 75.9991Z" fill="#F3AF00"/>
<path d="M73.034 85.6571C73.034 85.6571 76.828 80.5981 79.932 84.7371C83.036 88.8761 80.047 92.6701 80.047 92.6701C80.047 92.6701 84.53 94.2801 83.266 98.9931C82.001 103.707 77.287 101.408 77.287 101.408C77.287 101.408 79.2419 104.742 76.1369 106.467C73.0329 108.192 69.01 104.053 69.01 104.053C69.01 104.053 67.17 107.961 62.801 106.237C58.432 104.512 60.846 99.7991 60.846 99.7991C60.846 99.7991 55.903 100.948 54.983 96.0041C54.063 91.0611 59.237 89.7961 59.237 89.7961C59.237 89.7961 56.938 88.4161 58.892 84.0481C60.846 79.6791 64.756 84.0481 64.756 84.0481C64.756 84.0481 66.25 77.3791 69.584 78.1841C72.919 78.9891 73.034 85.6571 73.034 85.6571Z" fill="#DE8C00"/>
<path d="M71.079 90.3711C71.079 90.3711 73.034 88.0711 74.989 90.0261C76.943 91.9801 74.184 93.4741 74.184 93.4741C74.184 93.4741 77.977 94.9691 76.483 97.1541C74.989 99.3391 71.194 97.1541 71.194 97.1541C71.194 97.1541 71.884 100.603 68.435 100.717C64.986 100.832 65.905 96.9231 65.905 96.9231C65.905 96.9231 62.457 97.2681 62.686 93.9341C62.917 90.6001 65.1 91.9801 65.1 91.9801C65.1 91.9801 63.952 88.8761 66.825 87.2661C69.7 85.6571 71.079 90.3711 71.079 90.3711Z" fill="#F3AF00"/>
<path d="M65.666 43.8601C65.666 43.8601 66.279 35.7361 70.878 36.6561C75.477 37.5751 75.323 45.5471 75.323 45.5471C75.323 45.5471 81.301 40.0281 85.133 43.4011C88.966 46.7731 84.981 51.9851 84.981 51.9851C84.981 51.9851 93.413 53.5181 92.645 59.9571C91.879 66.3951 85.747 66.3951 85.747 66.3951C85.747 66.3951 90.193 70.3811 87.128 74.2131C84.062 78.0451 78.542 74.0601 78.542 74.0601C78.542 74.0601 78.39 79.4251 73.638 80.9591C68.886 82.4921 65.973 76.6661 65.973 76.6661C65.973 76.6661 63.366 79.4261 59.381 77.5861C55.396 75.7471 56.929 71.4551 56.929 71.4551C56.929 71.4551 52.636 72.2221 49.877 67.6221C47.118 63.0231 51.716 60.2641 51.716 60.2641C51.716 60.2641 46.964 57.9641 48.344 51.6791C49.724 45.3941 55.702 49.2271 55.702 49.2271C55.702 49.2271 51.716 41.5621 57.388 39.5691C63.06 37.5751 65.666 43.8601 65.666 43.8601Z" fill="#FF5012"/>
<path d="M70.265 52.6361C70.265 52.6361 72.105 48.1531 75.324 49.0721C78.543 49.9921 77.279 56.6611 77.279 56.6611C77.279 56.6611 83.142 57.1201 82.797 61.4891C82.453 65.8581 76.934 64.4781 76.934 64.4781C76.934 64.4781 79.349 67.8121 76.129 70.1121C72.91 72.4111 69.231 68.2721 69.231 68.2721C69.231 68.2721 68.197 72.0661 63.943 71.2611C59.689 70.4561 61.874 65.0531 61.874 65.0531C61.874 65.0531 57.39 66.5471 56.24 61.8331C55.091 57.1191 60.149 55.8541 60.149 55.8541C60.149 55.8541 57.735 51.8311 61.414 48.7261C65.091 45.6231 70.265 52.6361 70.265 52.6361Z" fill="#C93114"/>
<path d="M68.311 58.3841C68.311 58.3841 69.691 54.1301 71.645 55.6251C73.599 57.1191 72.91 59.9941 72.91 59.9941C72.91 59.9941 75.439 63.0971 73.599 64.5931C73.599 64.5931 71.645 66.3181 69.46 63.2131C69.46 63.2131 69.46 66.2021 66.815 65.7421C64.171 65.2821 65.781 61.1431 65.781 61.1431C65.781 61.1431 62.446 61.1431 63.481 57.6941C64.517 54.2461 68.311 58.3841 68.311 58.3841Z" fill="#FF5012"/>
<path d="M76.638 7.76408C76.638 7.76408 81.811 1.90008 85.26 6.72908C88.709 11.5581 85.26 13.8571 85.26 13.8571C85.26 13.8571 91.699 13.9721 92.388 19.8361C93.077 25.6991 89.629 27.0791 89.629 27.0791C89.629 27.0791 93.423 30.5281 91.009 35.8171C88.594 41.1051 85.375 38.1161 85.375 38.1161C85.375 38.1161 86.64 44.2101 83.535 45.8191C80.43 47.4281 74.567 42.7151 74.567 42.7151C74.567 42.7151 74.108 48.3491 68.473 48.0041C62.84 47.6591 61.459 41.9101 61.459 41.9101C61.459 41.9101 59.045 45.2441 55.252 43.1751C51.457 41.1061 54.217 36.0471 54.217 36.0471C54.217 36.0471 47.434 36.3921 46.168 29.6091C44.904 22.8261 51.342 21.1011 51.342 21.1011C51.342 21.1011 45.133 17.3071 48.008 12.7091C50.883 8.11008 55.365 11.2141 55.365 11.2141C55.365 11.2141 53.066 4.77608 57.205 3.28108C61.344 1.78708 65.254 5.92608 65.254 5.92608C65.254 5.92608 66.519 -1.20192 72.037 0.177077C77.557 1.55508 76.638 7.76408 76.638 7.76408Z" fill="#F3AF00"/>
<path d="M66.06 14.2021C66.06 14.2021 68.3599 7.30408 73.1889 9.14308C78.0169 10.9831 75.948 17.1911 75.948 17.1911C75.948 17.1911 81.4659 14.8921 83.3059 19.8361C85.1459 24.7801 81.351 26.3901 81.351 26.3901C81.351 26.3901 85.9509 29.8391 84.1109 33.7471C82.2709 37.6561 76.2929 36.3921 76.2929 36.3921C76.2929 36.3921 75.948 39.7261 72.614 40.5311C69.279 41.3371 65.716 36.5081 65.716 36.5081C65.716 36.5081 63.0709 39.2671 59.6209 36.5081C56.1719 33.7481 58.473 30.7591 58.473 30.7591C58.473 30.7591 53.643 30.8741 54.219 24.8961C54.793 18.9181 59.967 19.0331 59.967 19.0331C59.967 19.0331 57.323 15.5841 59.047 13.3991C60.77 11.2121 66.06 14.2021 66.06 14.2021Z" fill="#DE8C00"/>
<path d="M72.613 21.9051C72.613 21.9051 72.613 17.3061 70.428 17.4221C68.243 17.5371 66.979 21.2161 66.979 21.2161C66.979 21.2161 64.335 19.8361 62.379 22.4811C60.424 25.1261 63.988 25.8151 63.988 25.8151C63.988 25.8151 61.115 31.1041 63.988 32.8291C66.863 34.5541 70.197 29.8401 70.197 29.8401C70.197 29.8401 75.255 35.3591 76.636 32.5991C78.015 29.8401 74.796 26.7361 74.796 26.7361C74.796 26.7361 79.855 24.8961 78.59 22.1371C77.327 19.3751 72.613 21.9051 72.613 21.9051Z" fill="#F3AF00"/>
<path d="M66.989 29.8141C66.989 29.8141 74.323 24.1471 82.823 35.3141C91.323 46.4811 102.656 61.4811 118.656 59.6481C118.656 59.6481 113.989 72.1471 93.823 73.3141C73.656 74.4811 48.657 43.3141 66.989 29.8141Z" fill="#42A700"/>
<path d="M114.489 62.8141C114.489 62.8141 81.823 66.8151 70.656 38.4811Z" fill="#42A700"/>
<path d="M114.489 62.8141C114.489 62.8141 113.661 63.0001 112.185 63.1701C110.71 63.3311 108.585 63.4971 106.03 63.4061C104.751 63.3801 103.367 63.2721 101.907 63.1041C100.452 62.9121 98.91 62.7001 97.347 62.3211C95.777 61.9711 94.167 61.5281 92.569 60.9651C90.98 60.3781 89.372 59.7451 87.836 58.9511C86.29 58.1771 84.823 57.2541 83.411 56.3051C82.02 55.3201 80.731 54.2441 79.557 53.1291C78.376 52.0201 77.342 50.8401 76.422 49.6831C75.981 49.0891 75.533 48.5261 75.137 47.9561C74.766 47.3701 74.406 46.8031 74.063 46.2601C73.414 45.1521 72.859 44.1141 72.429 43.1691C72.018 42.2131 71.628 41.3991 71.397 40.6911C70.926 39.2851 70.658 38.4811 70.658 38.4811C70.658 38.4811 71.058 39.2241 71.759 40.5251C72.087 41.1821 72.599 41.9211 73.103 42.8041C73.348 43.2491 73.677 43.6831 73.996 44.1551C74.33 44.6171 74.627 45.1361 75.019 45.6231C75.401 46.1141 75.798 46.6251 76.209 47.1551C76.647 47.6601 77.098 48.1831 77.563 48.7201C78.521 49.7651 79.589 50.8081 80.745 51.8281C81.308 52.3541 81.95 52.8071 82.56 53.3101C83.189 53.7901 83.859 54.2321 84.506 54.7141C85.859 55.5961 87.263 56.4491 88.74 57.1691C90.189 57.9451 91.717 58.5691 93.228 59.1521C94.755 59.6981 96.266 60.2291 97.77 60.6161C100.764 61.4401 103.637 61.9441 106.121 62.2661C111.092 62.8961 114.489 62.8141 114.489 62.8141Z" fill="#004900"/>
<path d="M61.823 30.9811C61.823 30.9811 56.489 28.4811 48.823 37.8141C41.156 47.1481 29.989 58.1481 14.989 62.1481C14.989 62.1481 38.323 74.1481 53.656 62.6481C68.989 51.1481 69.489 31.8151 61.823 30.9811Z" fill="#42A700"/>
<path d="M61.989 33.9811C61.989 33.9811 49.323 63.3141 20.489 62.6481Z" fill="#42A700"/>
<path d="M61.989 33.9811C61.989 33.9811 60.966 37.2041 58.339 41.5371C57.695 42.6261 56.937 43.7691 56.094 44.9521C55.233 46.1201 54.319 47.3551 53.259 48.5391C52.22 49.7411 51.091 50.9391 49.872 52.0851C48.635 53.2111 47.356 54.3371 45.983 55.3491C44.621 56.3731 43.173 57.2821 41.727 58.1341C40.998 58.5511 40.252 58.9261 39.52 59.2981C38.766 59.6301 38.03 59.9771 37.292 60.2821C36.541 60.5581 35.817 60.8661 35.085 61.0981C34.348 61.3161 33.627 61.5291 32.926 61.7371C32.214 61.9021 31.522 62.0631 30.853 62.2181C30.177 62.3421 29.519 62.4311 28.892 62.5321C27.637 62.7231 26.47 62.7831 25.447 62.8381C24.418 62.8451 23.524 62.8731 22.79 62.8261C21.326 62.7131 20.489 62.6481 20.489 62.6481C20.489 62.6481 21.322 62.5681 22.777 62.4291C23.502 62.3681 24.373 62.1981 25.372 62.0771C25.871 62.0151 26.394 61.8801 26.948 61.7761C27.5 61.6601 28.085 61.5761 28.679 61.4041C29.277 61.2461 29.901 61.1001 30.538 60.9181C31.17 60.7211 31.824 60.5171 32.496 60.3081C33.153 60.0621 33.83 59.8091 34.52 59.5511C35.197 59.2621 35.889 58.9661 36.592 58.6661C37.285 58.3451 37.974 57.9821 38.68 57.6371C39.365 57.2511 40.057 56.8601 40.755 56.4651C42.126 55.6321 43.495 54.7431 44.788 53.7471C46.116 52.7981 47.359 51.7321 48.564 50.6661C49.743 49.5691 50.911 48.4911 51.956 47.3601C54.082 45.1311 55.902 42.8871 57.389 40.9011C60.355 36.9181 61.989 33.9811 61.989 33.9811Z" fill="#004900"/>
<path d="M67.323 27.4811C67.323 27.4811 79.492 28.6631 75.324 49.0721C71.157 69.4811 59.489 81.1471 36.156 78.3141C36.156 78.3141 43.823 72.3141 50.823 51.6481C57.823 30.9811 59.655 27.3151 67.323 27.4811Z" fill="#004900"/>
<path d="M65.656 31.4811C65.656 31.4811 65.565 34.7631 64.7 39.6041C64.277 42.0241 63.674 44.8331 62.826 47.7951C62.392 49.2721 61.952 50.8051 61.392 52.3261C60.855 53.8551 60.244 55.3871 59.609 56.9091C58.931 58.4141 58.218 59.9061 57.442 61.3391C57.054 62.0561 56.669 62.7661 56.233 63.4391C55.822 64.1251 55.393 64.7891 54.945 65.4271C54.085 66.7231 53.134 67.8991 52.188 68.9711C51.247 70.0471 50.269 70.9891 49.314 71.7921C48.858 72.2161 48.36 72.5571 47.908 72.8981C47.46 73.2461 47.003 73.5331 46.568 73.7931C45.727 74.3551 44.915 74.7071 44.268 75.0231C43.622 75.3401 43.062 75.4761 42.709 75.6191C42.348 75.7461 42.155 75.8141 42.155 75.8141C42.155 75.8141 42.333 75.7111 42.665 75.5201C42.991 75.3181 43.492 75.0721 44.078 74.6741C44.661 74.2691 45.378 73.8061 46.124 73.1701C46.509 72.8691 46.909 72.5411 47.297 72.1511C47.689 71.7681 48.134 71.4091 48.529 70.9541C49.36 70.0931 50.199 69.1041 51.036 68.0211C51.866 66.9311 52.683 65.7371 53.47 64.4641C54.281 63.2071 54.994 61.8271 55.735 60.4381C56.466 59.0421 57.133 57.5831 57.776 56.1121C58.417 54.6391 59.034 53.1541 59.58 51.6661C60.136 50.1821 60.672 48.7141 61.148 47.2771C61.62 45.8391 62.077 44.4471 62.481 43.1161C62.873 41.7801 63.244 40.5161 63.585 39.3501C64.902 34.6651 65.656 31.4811 65.656 31.4811Z" fill="#42A732"/>
</svg>
