<svg width="115" height="247" viewBox="0 0 115 247" fill="none" xmlns="http://www.w3.org/2000/svg">
<path d="M113.855 131.223C114.881 135.985 110.554 140.634 108.002 141.242L107.934 141.255C105.16 141.762 89.7457 137.036 86.3277 133.025C85.7087 132.288 85.3877 131.514 85.2917 130.738C84.8547 127.208 88.8767 123.624 88.8767 123.624C88.8767 123.624 92.1547 120.843 95.4977 120.33C98.8427 119.825 112.828 126.46 113.855 131.223Z" fill="#004900"/>
<path d="M114.193 118.456C113.748 120.386 112.892 122.305 111.61 123.508C108.905 126.053 97.1717 129.148 94.3797 128.444C93.1767 128.141 91.6097 127.405 90.1737 126.105C88.2737 124.398 86.5867 121.684 86.2767 117.634C85.7557 110.541 102.428 106.754 107.741 107.196C113.038 107.624 114.268 112.967 114.268 112.967C114.708 114.162 114.701 116.315 114.193 118.456Z" fill="#004900"/>
<path d="M112.845 100.299C114.069 105.014 109.937 109.839 107.412 110.552L107.345 110.568C104.594 111.189 88.9967 107.107 85.4147 103.24C84.7667 102.529 84.4137 101.769 84.2857 100.999C83.7017 97.4889 87.5717 93.7409 87.5717 93.7409C87.5717 93.7409 90.7327 90.8269 94.0507 90.1759C97.3727 89.5329 111.62 95.5829 112.845 100.299Z" fill="#004900"/>
<path d="M111.7 84.8469C111.063 86.7229 110.02 88.5459 108.623 89.6149C105.677 91.8779 93.6937 93.7829 90.9857 92.8039C89.8187 92.3809 88.3337 91.4919 87.0347 90.0549C85.3147 88.1659 83.9077 85.2969 84.0047 81.2379C84.1957 74.1289 101.164 72.0279 106.406 72.9999C111.633 73.9559 112.323 79.3959 112.323 79.3959C112.642 80.6259 112.42 82.7679 111.7 84.8469Z" fill="#004900"/>
<path d="M113.444 65.3609C114.975 69.9849 111.171 75.0719 108.699 75.9499L108.632 75.9699C105.929 76.7719 90.0977 73.7269 86.2677 70.1049C85.5737 69.4379 85.1727 68.7029 84.9927 67.9419C84.1797 64.4789 87.7947 60.4839 87.7947 60.4839C87.7947 60.4839 90.7557 57.3679 94.0237 56.4989C97.2947 55.6399 111.91 60.7359 113.444 65.3609Z" fill="#004900"/>
<path d="M113.655 46.6859C113.695 48.6649 113.335 50.7359 112.385 52.2149C110.385 55.3449 99.7647 61.2149 96.8847 61.2149C95.6447 61.2149 93.9447 60.8849 92.2347 59.9749C89.9747 58.7859 87.6747 56.5659 86.3847 52.7149C84.1447 45.9649 99.3847 38.2149 104.645 37.3449C109.885 36.4649 112.385 41.3449 112.385 41.3449C113.105 42.3959 113.625 44.4849 113.655 46.6859Z" fill="#004900"/>
<path d="M113.931 36.8809C114.051 41.7509 108.931 45.5109 106.311 45.6309H106.241C103.421 45.6109 89.1607 38.0909 86.5507 33.5109C86.0807 32.6709 85.9107 31.8519 85.9607 31.0719C86.1907 27.5219 90.8107 24.7519 90.8107 24.7519C90.8107 24.7519 94.5507 22.6319 97.9307 22.7519C101.311 22.8809 113.811 32.0109 113.931 36.8809Z" fill="#004900"/>
<path d="M98.7647 17.5479C98.7647 38.8489 98.7647 60.1509 98.7647 81.4509C98.7647 107.317 98.7647 133.183 98.7647 159.048C98.7647 159.798 98.7647 160.548 98.7647 161.298C98.7647 162.588 100.765 162.588 100.765 161.298C100.765 139.997 100.765 118.695 100.765 97.3949C100.765 71.5289 100.765 45.6629 100.765 19.7979C100.765 19.0479 100.765 18.2989 100.765 17.5489C100.765 16.2579 98.7647 16.2579 98.7647 17.5479Z" fill="#DE8C00"/>
<path d="M113.855 131.223C114.881 135.985 110.554 140.634 108.002 141.242L107.934 141.255C109.836 134.502 94.5417 128.796 88.9377 128.66C86.3417 128.603 85.4607 129.597 85.2917 130.738C84.8547 127.208 88.8767 123.623 88.8767 123.623C88.8767 123.623 92.1547 120.843 95.4977 120.33C98.8427 119.825 112.828 126.46 113.855 131.223Z" fill="#42A732"/>
<path d="M90.2697 123.617C90.2697 123.617 90.6627 123.611 91.3467 123.674C92.0267 123.752 93.0097 123.845 94.1617 124.1C95.3197 124.33 96.6497 124.699 98.0457 125.186C98.7367 125.448 99.4637 125.69 100.167 126.023C100.883 126.325 101.593 126.67 102.293 127.037C103.001 127.387 103.668 127.814 104.337 128.209C105.018 128.585 105.612 129.077 106.226 129.488C106.846 129.893 107.368 130.39 107.896 130.812C108.43 131.229 108.885 131.681 109.303 132.098C109.722 132.514 110.117 132.882 110.426 133.249C110.735 133.614 111.005 133.932 111.227 134.194C111.668 134.72 111.907 135.028 111.907 135.028C111.907 135.028 111.601 134.779 111.087 134.33C110.832 134.105 110.523 133.831 110.167 133.517C109.812 133.205 109.37 132.899 108.924 132.529C108.471 132.166 107.984 131.772 107.434 131.398C106.885 131.025 106.342 130.585 105.723 130.21C105.109 129.83 104.5 129.399 103.836 129.034C103.178 128.658 102.524 128.253 101.829 127.921C101.153 127.554 100.467 127.207 99.7727 126.901C99.0897 126.572 98.4017 126.286 97.7347 126.005C96.3957 125.463 95.1247 125 94.0167 124.65C92.9117 124.292 91.9767 124.024 91.3147 123.862C90.6537 123.699 90.2697 123.617 90.2697 123.617Z" fill="#004900"/>
<path d="M114.193 118.456C104.146 115.726 93.1177 123.753 90.1737 126.105C88.2737 124.398 86.5867 121.684 86.2767 117.634C85.7557 110.541 102.428 106.754 107.741 107.196C113.038 107.624 114.268 112.967 114.268 112.967C114.708 114.162 114.701 116.315 114.193 118.456Z" fill="#42A732"/>
<path d="M87.8207 120.73C87.8207 120.73 88.1037 120.398 88.6607 119.878C89.2207 119.363 90.0237 118.62 91.0837 117.85C92.1367 117.072 93.4107 116.217 94.8537 115.426C95.5787 115.042 96.3397 114.657 97.1287 114.306C97.9367 113.998 98.7307 113.612 99.5767 113.365C100.415 113.095 101.253 112.829 102.105 112.659C102.528 112.565 102.948 112.472 103.362 112.38C103.783 112.325 104.2 112.272 104.61 112.218C105.02 112.171 105.42 112.101 105.816 112.075C106.213 112.068 106.602 112.062 106.981 112.055C107.736 112.032 108.448 112.026 109.104 112.108C109.759 112.162 110.359 112.215 110.884 112.295C111.404 112.41 111.858 112.51 112.231 112.592C112.97 112.769 113.393 112.87 113.393 112.87C113.393 112.87 112.959 112.839 112.201 112.784C111.826 112.751 111.37 112.711 110.847 112.665C110.323 112.666 109.732 112.668 109.088 112.671C108.446 112.641 107.753 112.702 107.022 112.783C106.657 112.818 106.282 112.854 105.9 112.89C105.521 112.955 105.133 113.021 104.739 113.088C104.346 113.155 103.946 113.224 103.541 113.293C103.142 113.393 102.739 113.495 102.333 113.597C101.512 113.771 100.704 114.042 99.8947 114.312C99.0717 114.538 98.2967 114.905 97.5077 115.192C96.7387 115.53 95.9757 115.854 95.2547 116.206C94.5467 116.581 93.8347 116.897 93.1967 117.269C92.5447 117.615 91.9457 117.974 91.3977 118.314C90.3037 118.997 89.3907 119.577 88.7827 120.028C88.1637 120.462 87.8207 120.73 87.8207 120.73Z" fill="#004900"/>
<path d="M112.845 100.299C114.069 105.014 109.937 109.839 107.412 110.552L107.345 110.568C108.965 103.741 93.4477 98.6739 87.8427 98.7709C85.2467 98.8229 84.4087 99.8499 84.2857 100.998C83.7017 97.4879 87.5717 93.7399 87.5717 93.7399C87.5717 93.7399 90.7327 90.8259 94.0507 90.1749C97.3727 89.5329 111.62 95.5829 112.845 100.299Z" fill="#42A732"/>
<path d="M88.9647 93.6779C88.9647 93.6779 89.3567 93.6549 90.0427 93.6899C90.7257 93.7399 91.7107 93.7929 92.8727 93.9989C94.0387 94.1809 95.3837 94.4939 96.7987 94.9229C97.4997 95.1559 98.2367 95.3669 98.9517 95.6709C99.6797 95.9439 100.403 96.2589 101.117 96.5959C101.84 96.9159 102.523 97.3159 103.207 97.6829C103.904 98.0299 104.517 98.4969 105.147 98.8819C105.783 99.2609 106.325 99.7369 106.871 100.135C107.422 100.529 107.895 100.962 108.33 101.362C108.766 101.76 109.175 102.111 109.499 102.466C109.823 102.817 110.106 103.124 110.339 103.377C110.801 103.883 111.053 104.181 111.053 104.181C111.053 104.181 110.737 103.945 110.205 103.518C109.941 103.303 109.621 103.043 109.252 102.745C108.885 102.447 108.43 102.16 107.969 101.809C107.502 101.465 106.998 101.092 106.433 100.741C105.869 100.391 105.308 99.9739 104.674 99.6249C104.045 99.2709 103.419 98.8649 102.739 98.5279C102.067 98.1799 101.396 97.8019 100.688 97.4999C99.9967 97.1609 99.2967 96.8429 98.5907 96.5659C97.8947 96.2659 97.1947 96.0089 96.5177 95.7559C95.1577 95.2699 93.8687 94.8599 92.7477 94.5559C91.6287 94.2429 90.6837 94.0159 90.0157 93.8809C89.3507 93.7429 88.9647 93.6779 88.9647 93.6779Z" fill="#004900"/>
<path d="M111.7 84.8469C101.975 81.1249 90.1997 88.0099 87.0347 90.0549C85.3147 88.1659 83.9077 85.2969 84.0047 81.2379C84.1957 74.1289 101.164 72.0279 106.406 72.9999C111.633 73.9559 112.323 79.3949 112.323 79.3949C112.642 80.6259 112.42 82.7679 111.7 84.8469Z" fill="#42A732"/>
<path d="M85.2317 84.4719C85.2317 84.4719 85.5467 84.1699 86.1527 83.7079C86.7607 83.2509 87.6347 82.5929 88.7667 81.9329C89.8927 81.2639 91.2457 80.5399 92.7597 79.8979C93.5207 79.5889 94.3157 79.2819 95.1367 79.0109C95.9707 78.7849 96.7997 78.4809 97.6667 78.3199C98.5267 78.1349 99.3887 77.9539 100.254 77.8699C100.684 77.8189 101.111 77.7679 101.533 77.7179C101.958 77.7059 102.378 77.6939 102.791 77.6819C103.204 77.6759 103.609 77.6459 104.005 77.6609C104.401 77.6939 104.788 77.7259 105.165 77.7579C105.919 77.8109 106.628 77.8759 107.272 78.0239C107.919 78.1439 108.51 78.2559 109.026 78.3879C109.532 78.5549 109.973 78.6989 110.337 78.8189C111.055 79.0689 111.465 79.2119 111.465 79.2119C111.465 79.2119 111.037 79.1379 110.287 79.0079C109.917 78.9369 109.467 78.8519 108.952 78.7539C108.431 78.7029 107.843 78.6459 107.201 78.5839C106.565 78.4899 105.869 78.4819 105.134 78.4889C104.768 78.4869 104.391 78.4849 104.006 78.4839C103.622 78.5099 103.23 78.5369 102.832 78.5649C102.434 78.5919 102.029 78.6199 101.62 78.6479C101.213 78.7079 100.802 78.7679 100.387 78.8289C99.5527 78.9199 98.7207 79.1089 97.8897 79.2969C97.0487 79.4399 96.2407 79.7269 95.4267 79.9339C94.6287 80.1939 93.8367 80.4389 93.0847 80.7169C92.3427 81.0189 91.6027 81.2629 90.9307 81.5689C90.2467 81.8479 89.6167 82.1459 89.0357 82.4289C87.8797 82.9989 86.9127 83.4849 86.2627 83.8719C85.5997 84.2389 85.2317 84.4719 85.2317 84.4719Z" fill="#004900"/>
<path d="M113.444 65.3609C114.975 69.9849 111.171 75.0719 108.699 75.9499L108.632 75.9699C109.8 69.0519 93.9817 65.0199 88.3957 65.4859C85.8087 65.7079 85.0407 66.7889 84.9937 67.9419C84.1807 64.4789 87.7957 60.4839 87.7957 60.4839C87.7957 60.4839 90.7557 57.3679 94.0237 56.4989C97.2947 55.6399 111.91 60.7359 113.444 65.3609Z" fill="#42A732"/>
<path d="M89.1777 60.3289C89.1777 60.3289 89.5677 60.2809 90.2547 60.2699C90.9397 60.2739 91.9257 60.2619 93.0987 60.3919C94.2747 60.4959 95.6377 60.7209 97.0777 61.0549C97.7917 61.2419 98.5417 61.4039 99.2757 61.6589C100.021 61.8829 100.763 62.1499 101.499 62.4389C102.241 62.7109 102.949 63.0649 103.656 63.3859C104.374 63.6869 105.017 64.1129 105.671 64.4549C106.331 64.7909 106.903 65.2299 107.474 65.5919C108.05 65.9489 108.55 66.3499 109.011 66.7199C109.472 67.0879 109.904 67.4119 110.251 67.7439C110.598 68.0739 110.9 68.3609 111.149 68.5979C111.644 69.0739 111.915 69.3539 111.915 69.3539C111.915 69.3539 111.585 69.1389 111.025 68.7479C110.747 68.5509 110.41 68.3129 110.023 68.0389C109.637 67.7669 109.164 67.5099 108.681 67.1899C108.192 66.8769 107.665 66.5379 107.078 66.2249C106.492 65.9129 105.905 65.5339 105.249 65.2279C104.598 64.9159 103.946 64.5519 103.247 64.2609C102.553 63.9579 101.859 63.6249 101.132 63.3699C100.421 63.0769 99.7007 62.8059 98.9777 62.5769C98.2637 62.3229 97.5477 62.1129 96.8557 61.9049C95.4657 61.5089 94.1527 61.1859 93.0147 60.9569C91.8777 60.7189 90.9187 60.5539 90.2437 60.4639C89.5677 60.3689 89.1777 60.3289 89.1777 60.3289Z" fill="#004900"/>
<path d="M113.655 46.6859C103.245 46.4959 94.5147 56.9749 92.2347 59.9749C89.9747 58.7859 87.6747 56.5659 86.3847 52.7149C84.1447 45.9649 99.3847 38.2149 104.645 37.3449C109.885 36.4649 112.385 41.3449 112.385 41.3449C113.105 42.3959 113.625 44.4849 113.655 46.6859Z" fill="#42A732"/>
<path d="M88.6397 55.3399C88.6397 55.3399 88.8327 54.9489 89.2457 54.3079C89.6627 53.6719 90.2607 52.7549 91.0997 51.7489C91.9307 50.7369 92.9567 49.5959 94.1617 48.4769C94.7717 47.9269 95.4147 47.3689 96.0947 46.8339C96.8027 46.3379 97.4777 45.7699 98.2387 45.3229C98.9857 44.8569 99.7337 44.3929 100.518 44.0199C100.905 43.8259 101.289 43.6329 101.669 43.4419C102.065 43.2859 102.455 43.1309 102.839 42.9799C103.225 42.8339 103.596 42.6679 103.973 42.5459C104.357 42.4419 104.732 42.3409 105.097 42.2419C105.824 42.0349 106.512 41.8549 107.169 41.7749C107.818 41.6669 108.412 41.5719 108.941 41.5199C109.474 41.5039 109.938 41.4909 110.32 41.4789C111.08 41.4699 111.514 41.4639 111.514 41.4639C111.514 41.4639 111.086 41.5399 110.337 41.6719C109.965 41.7319 109.513 41.8039 108.995 41.8879C108.487 42.0179 107.915 42.1639 107.29 42.3239C106.66 42.4519 106.003 42.6809 105.314 42.9379C104.969 43.0609 104.614 43.1869 104.252 43.3169C103.9 43.4719 103.541 43.6309 103.175 43.7929C102.81 43.9539 102.439 44.1179 102.064 44.2839C101.702 44.4779 101.335 44.6759 100.966 44.8739C100.213 45.2439 99.4947 45.7039 98.7777 46.1629C98.0347 46.5839 97.3727 47.1289 96.6787 47.6009C96.0167 48.1169 95.3547 48.6179 94.7427 49.1349C94.1477 49.6719 93.5347 50.1529 93.0077 50.6689C92.4597 51.1639 91.9677 51.6579 91.5187 52.1219C90.6257 53.0519 89.8817 53.8379 89.4027 54.4229C88.9067 54.9959 88.6397 55.3399 88.6397 55.3399Z" fill="#004900"/>
<path d="M113.931 36.8809C114.051 41.7509 108.931 45.5109 106.311 45.6309H106.241C109.371 39.3519 95.4107 30.8909 89.9307 29.7109C87.3907 29.1709 86.3407 29.9829 85.9607 31.0719C86.1907 27.5219 90.8107 24.7519 90.8107 24.7519C90.8107 24.7519 94.5507 22.6319 97.9307 22.7519C101.311 22.8819 113.811 32.0109 113.931 36.8809Z" fill="#42A732"/>
<path d="M92.1817 25.0059C92.1817 25.0059 92.5687 25.0729 93.2287 25.2629C93.8827 25.4669 94.8307 25.7419 95.9147 26.2069C97.0097 26.6489 98.2477 27.2599 99.5277 27.9999C100.157 28.3869 100.827 28.7599 101.455 29.2179C102.102 29.6489 102.735 30.1209 103.354 30.6119C103.985 31.0879 104.559 31.6319 105.143 32.1449C105.742 32.6419 106.234 33.2359 106.76 33.7539C107.293 34.2669 107.713 34.8539 108.154 35.3659C108.601 35.8749 108.963 36.4039 109.296 36.8919C109.63 37.3789 109.949 37.8139 110.184 38.2319C110.42 38.6489 110.626 39.0109 110.795 39.3099C111.13 39.9089 111.307 40.2559 111.307 40.2559C111.307 40.2559 111.053 39.9539 110.632 39.4169C110.424 39.1479 110.171 38.8219 109.88 38.4469C109.59 38.0739 109.213 37.6919 108.843 37.2449C108.466 36.8039 108.06 36.3259 107.591 35.8559C107.121 35.3869 106.67 34.8539 106.131 34.3699C105.598 33.8819 105.081 33.3449 104.497 32.8619C103.921 32.3699 103.354 31.8499 102.733 31.3939C102.137 30.9069 101.528 30.4379 100.903 30.0089C100.294 29.5589 99.6707 29.1489 99.0677 28.7489C97.8537 27.9659 96.6907 27.2739 95.6687 26.7239C94.6507 26.1649 93.7817 25.7279 93.1617 25.4459C92.5427 25.1579 92.1817 25.0059 92.1817 25.0059Z" fill="#004900"/>
<path d="M94.6737 141.083C94.6737 141.083 91.3297 137.293 89.1007 140.414C86.8707 143.536 89.1007 145.022 89.1007 145.022C89.1007 145.022 84.9377 145.096 84.4927 148.887C84.0467 152.677 86.2767 153.569 86.2767 153.569C86.2767 153.569 83.8227 155.799 85.3837 159.217C86.9447 162.636 89.0267 160.704 89.0267 160.704C89.0267 160.704 88.2087 164.643 90.2147 165.684C92.2217 166.724 96.0117 163.677 96.0117 163.677C96.0117 163.677 96.3097 167.319 99.9507 167.096C103.593 166.872 104.485 163.157 104.485 163.157C104.485 163.157 106.046 165.312 108.498 163.974C110.951 162.636 109.168 159.367 109.168 159.367C109.168 159.367 113.553 159.59 114.37 155.205C115.187 150.819 111.025 149.705 111.025 149.705C111.025 149.705 115.039 147.252 113.18 144.279C111.323 141.306 108.424 143.312 108.424 143.312C108.424 143.312 109.909 139.151 107.235 138.184C104.559 137.218 102.032 139.893 102.032 139.893C102.032 139.893 101.215 135.286 97.6457 136.177C94.0797 137.07 94.6737 141.083 94.6737 141.083Z" fill="#F3AF00"/>
<path d="M101.512 145.245C101.512 145.245 100.026 140.786 96.9047 141.975C93.7827 143.163 95.1207 147.177 95.1207 147.177C95.1207 147.177 91.5537 145.691 90.3637 148.887C89.1747 152.082 91.6277 153.123 91.6277 153.123C91.6277 153.123 88.6547 155.353 89.8437 157.879C91.0327 160.406 94.8987 159.589 94.8987 159.589C94.8987 159.589 95.1217 161.744 97.2767 162.265C99.4317 162.786 101.737 159.663 101.737 159.663C101.737 159.663 103.446 161.446 105.676 159.663C107.905 157.879 106.419 155.946 106.419 155.946C106.419 155.946 109.54 156.021 109.169 152.156C108.797 148.292 105.452 148.366 105.452 148.366C105.452 148.366 107.162 146.137 106.047 144.723C104.93 143.313 101.512 145.245 101.512 145.245Z" fill="#DE8C00"/>
<path d="M95.4847 5.57789C95.4847 5.57789 93.9987 2.38289 90.8767 4.46389C87.7557 6.54489 91.2487 9.5919 91.2487 9.5919C91.2487 9.5919 87.2347 8.2539 86.1207 11.4499C85.0057 14.6449 88.3507 15.1659 88.3507 15.1659C88.3507 15.1659 84.1147 17.8419 85.5267 21.5579C86.9377 25.2749 89.9857 23.6389 89.9857 23.6389C89.9857 23.6389 87.8307 27.2809 90.2827 29.5109C92.7357 31.7399 96.3777 28.5439 96.3777 28.5439C96.3777 28.5439 97.3437 31.2199 100.392 31.5169C103.439 31.8149 104.406 27.7269 104.406 27.7269C104.406 27.7269 105.967 29.2879 108.493 28.4699C111.02 27.6529 109.682 22.6729 109.682 22.6729C109.682 22.6729 112.953 23.6389 113.844 20.9629C114.737 18.2879 111.54 16.5039 111.54 16.5039C111.54 16.5039 114.29 14.5709 113.026 10.7809C111.762 6.98989 107.823 9.1449 107.823 9.1449C107.823 9.1449 111.391 4.61189 107.973 2.90289C104.554 1.19289 102.027 5.42889 102.027 5.42889C102.027 5.42889 102.251 -0.145104 98.6827 0.00289594C95.1127 0.152896 95.4847 5.57789 95.4847 5.57789Z" fill="#FF5012"/>
<path d="M96.6727 11.8209C96.6727 11.8209 94.2207 8.54989 92.2147 11.2259C90.2067 13.9019 92.1397 16.3549 92.1397 16.3549C92.1397 16.3549 89.2417 17.3949 90.0587 20.4429C90.8757 23.4899 93.9237 22.0039 93.9237 22.0039C93.9237 22.0039 92.6597 24.1589 94.6657 25.2749C96.6727 26.3889 99.2737 23.7129 99.2737 23.7129C99.2737 23.7129 100.463 26.2399 103.288 25.1249C106.112 24.0109 104.552 20.9629 104.552 20.9629C104.552 20.9629 107.748 21.7059 108.342 18.5109C108.937 15.3149 105.592 14.4969 105.592 14.4969C105.592 14.4969 107.078 13.6049 105.816 10.7809C104.552 7.95689 102.025 10.7809 102.025 10.7809C102.025 10.7809 101.059 6.46989 98.9037 6.98989C96.7477 7.51089 96.6727 11.8209 96.6727 11.8209Z" fill="#C93114"/>
<path d="M45.531 206.517C45.531 206.517 43.232 201.574 38.402 204.792C33.573 208.012 38.977 212.726 38.977 212.726C38.977 212.726 32.769 210.656 31.044 215.6C29.319 220.544 34.493 221.349 34.493 221.349C34.493 221.349 27.94 225.488 30.124 231.236C32.309 236.984 37.022 234.455 37.022 234.455C37.022 234.455 33.688 240.09 37.482 243.538C41.276 246.987 46.909 242.043 46.909 242.043C46.909 242.043 48.404 246.183 53.117 246.643C57.831 247.103 59.326 240.78 59.326 240.78C59.326 240.78 61.74 243.194 65.649 241.929C69.558 240.664 67.488 232.961 67.488 232.961C67.488 232.961 72.547 234.455 73.926 230.316C75.306 226.177 70.362 223.418 70.362 223.418C70.362 223.418 74.616 220.43 72.661 214.566C70.706 208.702 64.613 212.037 64.613 212.037C64.613 212.037 70.132 205.023 64.843 202.379C59.554 199.735 55.645 206.288 55.645 206.288C55.645 206.288 55.99 197.665 50.471 197.896C44.956 198.124 45.531 206.517 45.531 206.517Z" fill="#F3AF00"/>
<path d="M47.371 216.175C47.371 216.175 43.577 211.116 40.473 215.255C37.369 219.394 40.358 223.188 40.358 223.188C40.358 223.188 35.874 224.798 37.139 229.511C38.404 234.225 43.118 231.925 43.118 231.925C43.118 231.925 41.163 235.259 44.268 236.984C47.372 238.709 51.396 234.57 51.396 234.57C51.396 234.57 53.235 238.479 57.604 236.755C61.973 235.03 59.559 230.317 59.559 230.317C59.559 230.317 64.502 231.467 65.422 226.523C66.342 221.58 61.168 220.315 61.168 220.315C61.168 220.315 63.467 218.935 61.513 214.567C59.558 210.198 55.649 214.567 55.649 214.567C55.649 214.567 54.154 207.898 50.82 208.703C47.486 209.507 47.371 216.175 47.371 216.175Z" fill="#DE8C00"/>
<path d="M49.325 220.888C49.325 220.888 47.37 218.589 45.416 220.544C43.461 222.497 46.221 223.992 46.221 223.992C46.221 223.992 42.427 225.487 43.922 227.671C45.417 229.857 49.211 227.671 49.211 227.671C49.211 227.671 48.522 231.12 51.97 231.236C55.419 231.351 54.5 227.442 54.5 227.442C54.5 227.442 57.949 227.787 57.719 224.453C57.489 221.119 55.305 222.498 55.305 222.498C55.305 222.498 56.454 219.394 53.58 217.785C50.705 216.175 49.325 220.888 49.325 220.888Z" fill="#F3AF00"/>
<path d="M45.041 173.013C45.041 173.013 39.868 167.15 36.419 171.979C32.97 176.807 36.419 179.107 36.419 179.107C36.419 179.107 29.981 179.222 29.29 185.086C28.601 190.949 32.049 192.329 32.049 192.329C32.049 192.329 28.255 195.778 30.67 201.066C33.085 206.355 36.303 203.366 36.303 203.366C36.303 203.366 35.038 209.459 38.143 211.068C41.247 212.677 47.111 207.964 47.111 207.964C47.111 207.964 47.571 213.597 53.204 213.253C58.837 212.907 60.217 207.159 60.217 207.159C60.217 207.159 62.631 210.493 66.426 208.423C70.219 206.355 67.46 201.296 67.46 201.296C67.46 201.296 74.243 201.641 75.508 194.858C76.773 188.075 70.334 186.35 70.334 186.35C70.334 186.35 76.543 182.556 73.668 177.958C70.794 173.358 66.311 176.463 66.311 176.463C66.311 176.463 68.61 170.025 64.471 168.53C60.332 167.035 56.423 171.175 56.423 171.175C56.423 171.175 55.158 164.046 49.64 165.426C44.122 166.805 45.041 173.013 45.041 173.013Z" fill="#FF5012"/>
<path d="M55.618 179.452C55.618 179.452 53.319 172.554 48.491 174.393C43.662 176.233 45.732 182.441 45.732 182.441C45.732 182.441 40.213 180.142 38.374 185.086C36.534 190.029 40.328 191.639 40.328 191.639C40.328 191.639 35.729 195.088 37.569 198.997C39.409 202.906 45.387 201.642 45.387 201.642C45.387 201.642 45.732 204.976 49.066 205.781C52.4 206.586 55.964 201.758 55.964 201.758C55.964 201.758 58.609 204.517 62.058 201.758C65.507 198.998 63.207 196.009 63.207 196.009C63.207 196.009 68.036 196.124 67.461 190.146C66.886 184.167 61.712 184.283 61.712 184.283C61.712 184.283 64.357 180.834 62.632 178.649C60.907 176.462 55.618 179.452 55.618 179.452Z" fill="#C93114"/>
<path d="M49.065 187.155C49.065 187.155 49.065 182.556 51.25 182.672C53.435 182.786 54.699 186.466 54.699 186.466C54.699 186.466 57.343 185.086 59.298 187.731C61.253 190.375 57.689 191.065 57.689 191.065C57.689 191.065 60.563 196.353 57.689 198.078C54.815 199.803 51.481 195.089 51.481 195.089C51.481 195.089 46.422 200.608 45.042 197.849C43.663 195.089 46.882 191.986 46.882 191.986C46.882 191.986 41.823 190.146 43.087 187.386C44.352 184.625 49.065 187.155 49.065 187.155Z" fill="#FF5012"/>
<path d="M53.969 142.611C53.969 142.611 53.356 134.486 48.757 135.406C44.158 136.326 44.311 144.298 44.311 144.298C44.311 144.298 38.333 138.779 34.501 142.152C30.668 145.524 34.654 150.736 34.654 150.736C34.654 150.736 26.222 152.269 26.989 158.708C27.756 165.147 33.887 165.147 33.887 165.147C33.887 165.147 29.441 169.132 32.507 172.964C35.573 176.796 41.091 172.811 41.091 172.811C41.091 172.811 41.245 178.177 45.997 179.709C50.749 181.242 53.661 175.417 53.661 175.417C53.661 175.417 56.268 178.176 60.253 176.337C64.238 174.497 62.706 170.205 62.706 170.205C62.706 170.205 66.998 170.972 69.757 166.373C72.516 161.773 67.918 159.015 67.918 159.015C67.918 159.015 72.67 156.715 71.291 150.43C69.911 144.145 63.933 147.978 63.933 147.978C63.933 147.978 67.918 140.314 62.246 138.321C56.574 136.328 53.969 142.611 53.969 142.611Z" fill="#F3AF00"/>
<path d="M49.37 151.386C49.37 151.386 47.531 146.903 44.311 147.822C41.092 148.741 42.357 155.41 42.357 155.41C42.357 155.41 36.493 155.87 36.838 160.238C37.183 164.607 42.702 163.227 42.702 163.227C42.702 163.227 40.287 166.562 43.507 168.861C46.726 171.161 50.405 167.021 50.405 167.021C50.405 167.021 51.44 170.816 55.694 170.01C59.948 169.205 57.763 163.802 57.763 163.802C57.763 163.802 62.247 165.297 63.396 160.583C64.546 155.869 59.487 154.604 59.487 154.604C59.487 154.604 61.902 150.58 58.222 147.475C54.543 144.373 49.37 151.386 49.37 151.386Z" fill="#DE8C00"/>
<path d="M51.324 157.135C51.324 157.135 49.945 152.881 47.99 154.375C46.036 155.87 46.725 158.744 46.725 158.744C46.725 158.744 44.196 161.848 46.035 163.343C46.035 163.343 47.989 165.068 50.174 161.963C50.174 161.963 50.174 164.952 52.818 164.492C55.463 164.033 53.853 159.893 53.853 159.893C53.853 159.893 57.188 159.893 56.153 156.444C55.118 152.996 51.324 157.135 51.324 157.135Z" fill="#F3AF00"/>
<path d="M43.805 106.748C43.805 106.748 41.506 101.805 36.677 105.023C31.848 108.243 37.252 112.957 37.252 112.957C37.252 112.957 31.044 110.888 29.319 115.831C27.594 120.774 32.768 121.579 32.768 121.579C32.768 121.579 26.215 125.719 28.399 131.467C30.584 137.216 35.297 134.687 35.297 134.687C35.297 134.687 31.963 140.32 35.757 143.769C39.551 147.218 45.184 142.275 45.184 142.275C45.184 142.275 46.679 146.414 51.392 146.874C56.106 147.334 57.601 141.011 57.601 141.011C57.601 141.011 60.015 143.425 63.924 142.16C67.833 140.895 65.763 133.192 65.763 133.192C65.763 133.192 70.822 134.687 72.201 130.547C73.581 126.408 68.637 123.649 68.637 123.649C68.637 123.649 72.891 120.66 70.936 114.795C68.981 108.932 62.888 112.266 62.888 112.266C62.888 112.266 68.407 105.253 63.118 102.609C57.83 99.9641 53.92 106.518 53.92 106.518C53.92 106.518 54.265 97.8951 48.747 98.1251C43.23 98.3561 43.805 106.748 43.805 106.748Z" fill="#FF5012"/>
<path d="M45.645 116.407C45.645 116.407 41.851 111.347 38.747 115.487C35.643 119.626 38.632 123.42 38.632 123.42C38.632 123.42 34.148 125.029 35.413 129.743C36.678 134.457 41.392 132.157 41.392 132.157C41.392 132.157 39.437 135.492 42.542 137.217C45.646 138.942 49.67 134.802 49.67 134.802C49.67 134.802 51.51 138.711 55.879 136.987C60.248 135.262 57.834 130.549 57.834 130.549C57.834 130.549 62.778 131.699 63.697 126.755C64.617 121.812 59.443 120.547 59.443 120.547C59.443 120.547 61.742 119.167 59.788 114.798C57.834 110.43 53.924 114.798 53.924 114.798C53.924 114.798 52.429 108.13 49.095 108.935C45.76 109.738 45.645 116.407 45.645 116.407Z" fill="#C93114"/>
<path d="M47.599 121.12C47.599 121.12 45.644 118.821 43.69 120.775C41.736 122.73 44.495 124.224 44.495 124.224C44.495 124.224 40.701 125.719 42.195 127.903C43.69 130.087 47.484 127.903 47.484 127.903C47.484 127.903 46.795 131.352 50.244 131.467C53.693 131.582 52.773 127.673 52.773 127.673C52.773 127.673 56.222 128.018 55.992 124.684C55.763 121.35 53.578 122.73 53.578 122.73C53.578 122.73 54.727 119.625 51.853 118.016C48.979 116.407 47.599 121.12 47.599 121.12Z" fill="#FF5012"/>
<path d="M43.783 75.9991C43.783 75.9991 41.484 71.0551 36.655 74.2741C31.826 77.4931 37.23 82.2071 37.23 82.2071C37.23 82.2071 31.021 80.1381 29.297 85.0811C27.572 90.0251 32.746 90.8301 32.746 90.8301C32.746 90.8301 26.193 94.9691 28.377 100.717C30.562 106.466 35.275 103.937 35.275 103.937C35.275 103.937 31.941 109.571 35.735 113.019C39.529 116.468 45.162 111.525 45.162 111.525C45.162 111.525 46.657 115.664 51.37 116.124C56.084 116.584 57.579 110.261 57.579 110.261C57.579 110.261 59.993 112.675 63.902 111.41C67.811 110.145 65.741 102.442 65.741 102.442C65.741 102.442 70.8 103.937 72.179 99.7981C73.559 95.6581 68.615 92.9001 68.615 92.9001C68.615 92.9001 72.869 89.9111 70.914 84.0471C68.959 78.1831 62.866 81.5181 62.866 81.5181C62.866 81.5181 68.385 74.5041 63.096 71.8601C57.807 69.2161 53.898 75.7691 53.898 75.7691C53.898 75.7691 54.243 67.1461 48.724 67.3761C43.208 67.6061 43.783 75.9991 43.783 75.9991Z" fill="#F3AF00"/>
<path d="M45.623 85.6571C45.623 85.6571 41.829 80.5981 38.725 84.7371C35.621 88.8761 38.61 92.6701 38.61 92.6701C38.61 92.6701 34.126 94.2801 35.391 98.9931C36.656 103.707 41.37 101.408 41.37 101.408C41.37 101.408 39.415 104.742 42.52 106.467C45.624 108.192 49.648 104.053 49.648 104.053C49.648 104.053 51.487 107.961 55.857 106.237C60.226 104.512 57.812 99.7991 57.812 99.7991C57.812 99.7991 62.755 100.948 63.675 96.0041C64.595 91.0611 59.421 89.7961 59.421 89.7961C59.421 89.7961 61.72 88.4161 59.766 84.0481C57.811 79.6791 53.902 84.0481 53.902 84.0481C53.902 84.0481 52.407 77.3791 49.073 78.1841C45.738 78.9891 45.623 85.6571 45.623 85.6571Z" fill="#DE8C00"/>
<path d="M47.577 90.3711C47.577 90.3711 45.622 88.0711 43.668 90.0261C41.713 91.9801 44.473 93.4741 44.473 93.4741C44.473 93.4741 40.679 94.9691 42.174 97.1541C43.669 99.3391 47.463 97.1541 47.463 97.1541C47.463 97.1541 46.774 100.603 50.222 100.717C53.671 100.832 52.752 96.9231 52.752 96.9231C52.752 96.9231 56.201 97.2681 55.971 93.9341C55.741 90.6001 53.557 91.9801 53.557 91.9801C53.557 91.9801 54.706 88.8761 51.832 87.2661C48.957 85.6571 47.577 90.3711 47.577 90.3711Z" fill="#F3AF00"/>
<path d="M52.991 43.8601C52.991 43.8601 52.378 35.7361 47.779 36.6561C43.18 37.5751 43.333 45.5471 43.333 45.5471C43.333 45.5471 37.355 40.0281 33.522 43.4011C29.689 46.7731 33.675 51.9851 33.675 51.9851C33.675 51.9851 25.243 53.5181 26.01 59.9571C26.777 66.3951 32.908 66.3951 32.908 66.3951C32.908 66.3951 28.462 70.3811 31.528 74.2131C34.594 78.0451 40.113 74.0601 40.113 74.0601C40.113 74.0601 40.266 79.4251 45.018 80.9591C49.77 82.4921 52.683 76.6661 52.683 76.6661C52.683 76.6661 55.289 79.4261 59.275 77.5861C63.26 75.7471 61.728 71.4551 61.728 71.4551C61.728 71.4551 66.02 72.2221 68.779 67.6221C71.538 63.0231 66.94 60.2641 66.94 60.2641C66.94 60.2641 71.692 57.9641 70.313 51.6791C68.934 45.3941 62.955 49.2271 62.955 49.2271C62.955 49.2271 66.94 41.5621 61.269 39.5691C55.597 37.5751 52.991 43.8601 52.991 43.8601Z" fill="#FF5012"/>
<path d="M48.392 52.6361C48.392 52.6361 46.552 48.1531 43.333 49.0721C40.114 49.9921 41.379 56.6611 41.379 56.6611C41.379 56.6611 35.515 57.1201 35.86 61.4891C36.205 65.8581 41.723 64.4781 41.723 64.4781C41.723 64.4781 39.308 67.8121 42.528 70.1121C45.747 72.4111 49.426 68.2721 49.426 68.2721C49.426 68.2721 50.461 72.0661 54.714 71.2611C58.968 70.4561 56.783 65.0531 56.783 65.0531C56.783 65.0531 61.267 66.5471 62.417 61.8331C63.566 57.1191 58.508 55.8541 58.508 55.8541C58.508 55.8541 60.922 51.8311 57.243 48.7261C53.565 45.6231 48.392 52.6361 48.392 52.6361Z" fill="#C93114"/>
<path d="M50.346 58.3841C50.346 58.3841 48.967 54.1301 47.012 55.6251C45.057 57.1191 45.747 59.9941 45.747 59.9941C45.747 59.9941 43.218 63.0971 45.057 64.5931C45.057 64.5931 47.012 66.3181 49.196 63.2131C49.196 63.2131 49.196 66.2021 51.84 65.7421C54.485 65.2821 52.875 61.1431 52.875 61.1431C52.875 61.1431 56.21 61.1431 55.175 57.6941C54.141 54.2461 50.346 58.3841 50.346 58.3841Z" fill="#FF5012"/>
<path d="M42.02 7.76408C42.02 7.76408 36.847 1.90008 33.398 6.72908C29.949 11.5581 33.398 13.8571 33.398 13.8571C33.398 13.8571 26.959 13.9721 26.27 19.8361C25.581 25.6991 29.029 27.0791 29.029 27.0791C29.029 27.0791 25.235 30.5281 27.65 35.8171C30.065 41.1051 33.283 38.1161 33.283 38.1161C33.283 38.1161 32.018 44.2101 35.123 45.8191C38.227 47.4281 44.09 42.7151 44.09 42.7151C44.09 42.7151 44.55 48.3491 50.184 48.0041C55.818 47.6591 57.198 41.9101 57.198 41.9101C57.198 41.9101 59.612 45.2441 63.406 43.1751C67.2 41.1061 64.441 36.0471 64.441 36.0471C64.441 36.0471 71.224 36.3921 72.489 29.6091C73.754 22.8261 67.315 21.1011 67.315 21.1011C67.315 21.1011 73.524 17.3071 70.649 12.7091C67.775 8.11008 63.292 11.2141 63.292 11.2141C63.292 11.2141 65.591 4.77608 61.452 3.28108C57.313 1.78708 53.404 5.92608 53.404 5.92608C53.404 5.92608 52.139 -1.20192 46.621 0.177077C41.1 1.55508 42.02 7.76408 42.02 7.76408Z" fill="#F3AF00"/>
<path d="M52.597 14.2021C52.597 14.2021 50.298 7.30408 45.469 9.14308C40.64 10.9831 42.71 17.1911 42.71 17.1911C42.71 17.1911 37.191 14.8921 35.352 19.8361C33.512 24.7801 37.306 26.3901 37.306 26.3901C37.306 26.3901 32.707 29.8391 34.547 33.7471C36.387 37.6561 42.365 36.3921 42.365 36.3921C42.365 36.3921 42.71 39.7261 46.044 40.5311C49.378 41.3371 52.942 36.5081 52.942 36.5081C52.942 36.5081 55.587 39.2671 59.036 36.5081C62.485 33.7481 60.186 30.7591 60.186 30.7591C60.186 30.7591 65.015 30.8741 64.44 24.8961C63.865 18.9181 58.691 19.0331 58.691 19.0331C58.691 19.0331 61.336 15.5841 59.611 13.3991C57.886 11.2121 52.597 14.2021 52.597 14.2021Z" fill="#DE8C00"/>
<path d="M46.044 21.9051C46.044 21.9051 46.044 17.3061 48.228 17.4221C50.413 17.5371 51.677 21.2161 51.677 21.2161C51.677 21.2161 54.322 19.8361 56.276 22.4811C58.231 25.1261 54.667 25.8151 54.667 25.8151C54.667 25.8151 57.541 31.1041 54.667 32.8291C51.792 34.5541 48.458 29.8401 48.458 29.8401C48.458 29.8401 43.399 35.3591 42.02 32.5991C40.641 29.8401 43.86 26.7361 43.86 26.7361C43.86 26.7361 38.801 24.8961 40.066 22.1371C41.33 19.3751 46.044 21.9051 46.044 21.9051Z" fill="#F3AF00"/>
<path d="M51.667 29.8141C51.667 29.8141 44.334 24.1471 35.834 35.3141C27.334 46.4811 16.001 61.4811 0 59.6481C0 59.6481 4.667 72.1471 24.833 73.3141C44.999 74.4811 70 43.3141 51.667 29.8141Z" fill="#42A700"/>
<path d="M4.167 62.8141C4.167 62.8141 36.834 66.8151 48.001 38.4811Z" fill="#42A700"/>
<path d="M4.167 62.8141C4.167 62.8141 7.565 62.8961 12.537 62.2661C15.02 61.9441 17.894 61.4401 20.888 60.6161C22.391 60.2291 23.903 59.6971 25.43 59.1521C26.942 58.5681 28.469 57.9441 29.918 57.1681C31.396 56.4491 32.8 55.5951 34.153 54.7131C34.799 54.2311 35.47 53.7891 36.099 53.3091C36.708 52.8061 37.351 52.3531 37.914 51.8271C39.069 50.8081 40.137 49.7651 41.096 48.7191C41.56 48.1821 42.013 47.6591 42.45 47.1541C42.861 46.6251 43.259 46.1131 43.64 45.6221C44.032 45.1361 44.329 44.6161 44.662 44.1541C44.981 43.6821 45.311 43.2491 45.557 42.8031C46.06 41.9201 46.573 41.1811 46.9 40.5241C47.6 39.2231 48.001 38.4811 48.001 38.4811C48.001 38.4811 47.732 39.2841 47.262 40.6901C47.03 41.3981 46.64 42.2121 46.23 43.1681C45.8 44.1131 45.245 45.1511 44.596 46.2591C44.252 46.8021 43.893 47.3691 43.522 47.9551C43.126 48.5251 42.678 49.0881 42.237 49.6821C41.316 50.8391 40.283 52.0181 39.101 53.1281C37.926 54.2421 36.637 55.3181 35.247 56.3041C33.834 57.2531 32.368 58.1761 30.822 58.9501C29.286 59.7441 27.677 60.3771 26.088 60.9651C24.489 61.5281 22.88 61.9711 21.31 62.3201C19.746 62.6981 18.205 62.9101 16.749 63.1031C15.289 63.2701 13.905 63.3791 12.626 63.4051C10.07 63.4961 7.944 63.3301 6.47 63.1691C4.995 62.9991 4.167 62.8141 4.167 62.8141Z" fill="#004900"/>
<path d="M56.834 30.9811C56.834 30.9811 62.167 28.4811 69.834 37.8141C77.5 47.1481 88.667 58.1481 103.667 62.1481C103.667 62.1481 80.334 74.1481 65 62.6481C49.666 51.1481 49.167 31.8151 56.834 30.9811Z" fill="#42A700"/>
<path d="M56.667 33.9811C56.667 33.9811 69.333 63.3141 98.167 62.6481Z" fill="#42A700"/>
<path d="M56.667 33.9811C56.667 33.9811 58.301 36.9181 61.267 40.9001C62.753 42.8871 64.574 45.1301 66.7 47.3591C67.745 48.4901 68.913 49.5681 70.092 50.6661C71.298 51.7321 72.541 52.7981 73.868 53.7471C75.162 54.7431 76.53 55.6321 77.901 56.4651C78.6 56.8591 79.293 57.2501 79.977 57.6371C80.682 57.9831 81.371 58.3451 82.064 58.6661C82.768 58.9661 83.459 59.2621 84.136 59.5511C84.827 59.8091 85.503 60.0621 86.161 60.3081C86.833 60.5171 87.487 60.7211 88.119 60.9181C88.756 61.1001 89.381 61.2471 89.977 61.4041C90.572 61.5761 91.157 61.6591 91.709 61.7761C92.263 61.8801 92.785 62.0151 93.285 62.0771C94.284 62.1981 95.156 62.3681 95.88 62.4291C97.335 62.5691 98.167 62.6481 98.167 62.6481C98.167 62.6481 97.331 62.7131 95.867 62.8261C95.132 62.8731 94.24 62.8461 93.21 62.8381C92.186 62.7831 91.019 62.7231 89.765 62.5321C89.138 62.4311 88.48 62.3421 87.804 62.2181C87.135 62.0631 86.443 61.9021 85.731 61.7371C85.029 61.5301 84.309 61.3161 83.572 61.0981C82.839 60.8661 82.115 60.5571 81.364 60.2821C80.625 59.9771 79.89 59.6301 79.136 59.2981C78.403 58.9251 77.657 58.5501 76.929 58.1331C75.482 57.2811 74.035 56.3731 72.673 55.3481C71.3 54.3361 70.021 53.2101 68.785 52.0841C67.566 50.9381 66.436 49.7401 65.398 48.5381C64.338 47.3541 63.423 46.1191 62.562 44.9511C61.719 43.7681 60.961 42.6251 60.317 41.5361C57.69 37.2041 56.667 33.9811 56.667 33.9811Z" fill="#004900"/>
<path d="M51.334 27.4811C51.334 27.4811 39.165 28.6631 43.333 49.0721C47.501 69.4811 59.167 81.1471 82.5 78.3141C82.5 78.3141 74.834 72.3141 67.834 51.6481C60.834 30.9811 59.001 27.3151 51.334 27.4811Z" fill="#004900"/>
<path d="M53 31.4811C53 31.4811 53.754 34.6661 55.071 39.3501C55.413 40.5161 55.783 41.7791 56.175 43.1161C56.58 44.4461 57.037 45.8391 57.509 47.2771C57.985 48.7141 58.522 50.1811 59.077 51.6661C59.623 53.1541 60.24 54.6391 60.881 56.1121C61.524 57.5831 62.191 59.0431 62.923 60.4381C63.663 61.8271 64.376 63.2071 65.187 64.4641C65.974 65.7371 66.791 66.9311 67.621 68.0201C68.458 69.1041 69.297 70.0921 70.128 70.9541C70.523 71.4091 70.968 71.7681 71.36 72.1511C71.747 72.5411 72.148 72.8691 72.532 73.1701C73.278 73.8071 73.995 74.2701 74.578 74.6751C75.163 75.0731 75.665 75.3191 75.991 75.5211C76.324 75.7131 76.501 75.8151 76.501 75.8151C76.501 75.8151 76.309 75.7471 75.948 75.6201C75.594 75.4761 75.034 75.3411 74.388 75.0241C73.742 74.7081 72.929 74.3551 72.089 73.7941C71.654 73.5351 71.197 73.2481 70.749 72.9001C70.296 72.5581 69.799 72.2171 69.343 71.7941C68.388 70.9901 67.411 70.0481 66.469 68.9721C65.523 67.9011 64.572 66.7241 63.712 65.4281C63.264 64.7901 62.836 64.1261 62.424 63.4411C61.989 62.7681 61.603 62.0581 61.215 61.3411C60.439 59.9081 59.726 58.4161 59.049 56.9111C58.413 55.3891 57.802 53.8571 57.265 52.3281C56.705 50.8061 56.265 49.2741 55.831 47.7971C54.983 44.8361 54.379 42.0261 53.957 39.6061C53.092 34.7631 53 31.4811 53 31.4811Z" fill="#42A732"/>
</svg>
